<svg xmlns="http://www.w3.org/2000/svg" xmlns:xlink="http://www.w3.org/1999/xlink" viewBox="0 0 280.9 101.8">
  <defs>
    <style>
      .cls-1 {
        fill: #fff;
      }

      .cls-2 {
        fill: none;
        stroke-miterlimit: 10;
        stroke-width: 1.97px;
        stroke: url(#linear-gradient);
      }
    </style>
    <linearGradient id="linear-gradient" x1="0.98" y1="33.35" x2="279.43" y2="33.35" gradientUnits="userSpaceOnUse">
      <stop offset="0" stop-color="#f8edc0"/>
      <stop offset="0.49" stop-color="#9a845d"/>
      <stop offset="0.77" stop-color="#f1df97"/>
      <stop offset="0.85" stop-color="#d8cb95"/>
      <stop offset="0.94" stop-color="#c6bc94"/>
      <stop offset="1" stop-color="#bfb793"/>
    </linearGradient>
  </defs>
  <g id="Layer_2" data-name="Layer 2">
    <g id="manLogo">
      <g>
        <g>
          <path class="cls-1" d="M25.93,65.72H1V1.49h22.1c10.46,0,19.77,6.54,19.77,17,0,3.83-2,8.66-5.61,10.57C43.16,30.89,49,37.53,49,45.68,49,58.17,38.62,65.72,25.93,65.72ZM20.54,13.07H15.68V26.25h4.86c3.91,0,7.51-1.91,7.51-6.54S24.45,13.07,20.54,13.07Zm2.64,24.46h-7.5V54.34h7.5c5,0,10-2.51,10-8.35S28.26,37.53,23.18,37.53Z"/>
          <path class="cls-1" d="M99.51,65.72l-5.6-14.5H72.45l-5.61,14.5H51.41L77.94,1H89.25l26.54,64.74ZM85.24,27.16a56.35,56.35,0,0,1-2-5.94H83a50.25,50.25,0,0,1-1.91,5.94L76.57,39H89.78Z"/>
          <path class="cls-1" d="M122.34,65.72V1.49h16.39V52.93H164.1V65.72Z"/>
          <path class="cls-1" d="M170.34,65.72V1.49h16.38V52.93h25.37V65.72Z"/>
          <path class="cls-1" d="M263.15,65.72l-5.6-14.5H236.09l-5.61,14.5H215.05L241.58,1H252.9l26.53,64.74ZM248.88,27.16a56.35,56.35,0,0,1-2-5.94h-.21a52.26,52.26,0,0,1-1.9,5.94L240.21,39h13.21Z"/>
        </g>
        <g>
          <path class="cls-2" d="M25.93,65.72H1V1.49h22.1c10.46,0,19.77,6.54,19.77,17,0,3.83-2,8.66-5.61,10.57C43.16,30.89,49,37.53,49,45.68,49,58.17,38.62,65.72,25.93,65.72ZM20.54,13.07H15.68V26.25h4.86c3.91,0,7.51-1.91,7.51-6.54S24.45,13.07,20.54,13.07Zm2.64,24.46h-7.5V54.34h7.5c5,0,10-2.51,10-8.35S28.26,37.53,23.18,37.53Z"/>
          <path class="cls-2" d="M99.51,65.72l-5.6-14.5H72.45l-5.61,14.5H51.41L77.94,1H89.25l26.54,64.74ZM85.24,27.16a56.35,56.35,0,0,1-2-5.94H83a50.25,50.25,0,0,1-1.91,5.94L76.57,39H89.78Z"/>
          <path class="cls-2" d="M122.34,65.72V1.49h16.39V52.93H164.1V65.72Z"/>
          <path class="cls-2" d="M170.34,65.72V1.49h16.38V52.93h25.37V65.72Z"/>
          <path class="cls-2" d="M263.15,65.72l-5.6-14.5H236.09l-5.61,14.5H215.05L241.58,1H252.9l26.53,64.74ZM248.88,27.16a56.35,56.35,0,0,1-2-5.94h-.21a52.26,52.26,0,0,1-1.9,5.94L240.21,39h13.21Z"/>
        </g>
      </g>
      <g>
        <path class="cls-1" d="M24.46,101.24H14.93V77.15h8.44c4,0,7.55,2.45,7.55,6.38a4.64,4.64,0,0,1-2.14,4,6.68,6.68,0,0,1,4.48,6.23C33.26,98.4,29.31,101.24,24.46,101.24ZM22.4,81.49H20.54v5H22.4c1.49,0,2.87-.72,2.87-2.46S23.89,81.49,22.4,81.49Zm1,9.18H20.54V97h2.87c1.9,0,3.84-.94,3.84-3.13S25.35,90.67,23.41,90.67Z"/>
        <path class="cls-1" d="M36.66,101.24V77.15H51.44V82H42.8V86.7h7.11v4.91H42.8v4.83h9.85v4.8Z"/>
        <path class="cls-1" d="M55,101.24V77.15H69.78V82H61.14V86.7h7.11v4.91H61.14v4.83H71v4.8Z"/>
        <path class="cls-1" d="M87.92,101.24,81,91.76H79.36v9.48h-6V77.15h9.41c4.4,0,8.32,2.76,8.32,7.29a6.66,6.66,0,0,1-4,6l8.2,10.76Zm-6.1-19.37H79.36v5.4h2.46c1.61,0,3.23-.83,3.23-2.68S83.43,81.87,81.82,81.87Z"/>
        <path class="cls-1" d="M111.47,82V86.7h7.31v4.91h-7.31v9.63h-6.14V77.15h15V82Z"/>
        <path class="cls-1" d="M135.74,101.8c-7.1,0-13.89-4.87-13.89-12.64s6.75-12.61,13.89-12.61,13.86,4.87,13.86,12.61S142.89,101.8,135.74,101.8Zm0-20a7.44,7.44,0,1,0,7.52,7.44A7.4,7.4,0,0,0,135.74,81.79Z"/>
        <path class="cls-1" d="M167.57,101.24l-6.9-9.48H159v9.48h-6V77.15h9.42c4.4,0,8.32,2.76,8.32,7.29a6.66,6.66,0,0,1-4,6l8.2,10.76Zm-6.09-19.37H159v5.4h2.47c1.61,0,3.23-.83,3.23-2.68S163.09,81.87,161.48,81.87Z"/>
        <path class="cls-1" d="M208.9,101.24l-.85-8.88c-.12-1.32-.24-2.9-.24-4.45h-.08c-.61,1.51-1.46,3.17-2.18,4.53l-4.85,8.87h-2.5l-4.93-8.87A41.56,41.56,0,0,1,191.09,88H191c0,1.55-.08,3.13-.21,4.41l-.8,8.88h-5.82l2.22-24.09h5.17l5.62,10.12c.8,1.47,1.89,3.55,2.58,5.13h0c.65-1.58,1.66-3.55,2.51-5.13l5.57-10.12h4.85L215,101.24Z"/>
        <path class="cls-1" d="M218.39,101.24V77.15h14.79V82h-8.65V86.7h7.11v4.91h-7.11v4.83h9.86v4.8Z"/>
        <path class="cls-1" d="M257.74,101.5,247.6,91.16c-1.66-1.7-3.48-3.67-4.89-5.29l-.08,0c.08,1.7.12,3.51.12,5.06v10.27h-6V77.15h5.05l8.89,9c1.25,1.29,3.11,3.17,4.28,4.61l.08,0c-.08-1.47-.16-3-.16-4.49v-9.1h6.06V101.5Z"/>
      </g>
    </g>
  </g>
</svg>
