<svg xmlns="http://www.w3.org/2000/svg" xmlns:xlink="http://www.w3.org/1999/xlink" viewBox="0 0 320.01 182.35">
  <defs>
    <style>
      .cls-1 {
        font-size: 72.99px;
        fill: #fff;
        font-family: Agenda-Bold, Agenda;
        font-weight: 700;
      }

      .cls-2 {
        letter-spacing: -0.02em;
      }

      .cls-3 {
        letter-spacing: 0em;
      }

      .cls-4 {
        letter-spacing: 0.01em;
      }

      .cls-5, .cls-9 {
        fill: none;
      }

      .cls-5 {
        stroke-miterlimit: 10;
        stroke-width: 1.97px;
        stroke: url(#linear-gradient);
      }

      .cls-6 {
        fill: #c1301d;
      }

      .cls-7 {
        fill: url(#linear-gradient-6);
      }

      .cls-8 {
        fill: #9b8d60;
      }
    </style>
    <linearGradient id="linear-gradient" x1="3.99" y1="94.39" x2="205.86" y2="94.39" gradientUnits="userSpaceOnUse">
      <stop offset="0" stop-color="#f8edc0"/>
      <stop offset="0.49" stop-color="#9a845d"/>
      <stop offset="0.77" stop-color="#f1df97"/>
      <stop offset="0.85" stop-color="#d8cb95"/>
      <stop offset="0.94" stop-color="#c6bc94"/>
      <stop offset="1" stop-color="#bfb793"/>
    </linearGradient>
    <linearGradient id="linear-gradient-6" x1="219.78" y1="91.18" x2="320.01" y2="91.18" gradientUnits="userSpaceOnUse">
      <stop offset="0" stop-color="#675e4c"/>
      <stop offset="1" stop-color="#c2af75"/>
    </linearGradient>
  </defs>
  <g id="Layer_2" data-name="Layer 2">
    <g id="Layer_1-2" data-name="Layer 1">
      <g>
        <text class="cls-1" transform="translate(0 117.86) scale(1.05 1)"><tspan class="cls-2">B</tspan><tspan class="cls-3" x="37.88" y="0">AL</tspan><tspan class="cls-4" x="116.93" y="0">L</tspan><tspan x="150.87" y="0">A</tspan></text>
        <g>
          <path class="cls-5" d="M22.07,117.86H4V71.29H20c7.59,0,14.34,4.74,14.34,12.34,0,2.77-1.46,6.27-4.07,7.66a12.87,12.87,0,0,1,8.51,12C38.78,112.39,31.27,117.86,22.07,117.86Zm-3.9-38.18H14.64v9.57h3.53c2.83,0,5.44-1.39,5.44-4.75S21,79.68,18.17,79.68Zm1.91,17.74H14.64v12.19h5.44c3.6,0,7.28-1.82,7.28-6.06S23.76,97.42,20.08,97.42Z"/>
          <path class="cls-5" d="M75.42,117.86l-4.07-10.51H55.79l-4.06,10.51H40.54L59.78,70.92H68l19.24,46.94Zm-10.35-28a43,43,0,0,1-1.46-4.3h-.15a35.85,35.85,0,0,1-1.38,4.3l-3.3,8.62h9.58Z"/>
          <path class="cls-5" d="M92,117.86V71.29h11.88v37.3h18.39v9.27Z"/>
          <path class="cls-5" d="M126.76,117.86V71.29h11.88v37.3H157v9.27Z"/>
          <path class="cls-5" d="M194.05,117.86,190,107.35H174.43l-4.06,10.51H159.18l19.24-46.94h8.2l19.24,46.94Zm-10.34-28a40.64,40.64,0,0,1-1.46-4.3h-.15a37.75,37.75,0,0,1-1.38,4.3l-3.3,8.62H187Z"/>
        </g>
      </g>
    </g>
    <g id="manLogo">
      <g>
        <g>
          <path class="cls-6" d="M295,91.51c1.62,2.19,2.05,2,2.05,2s-.31-10.67.82-14.09,5.57-8.69,6-9.86,1.07-.67,1.07-.67a2.62,2.62,0,0,0,1.33,1.74c1-4.75,3.78-9.14,5.62-13.69s.4-12.87.4-12.87A3.17,3.17,0,0,0,314,45.6a13,13,0,0,1-1-5.42,25.68,25.68,0,0,0-1.33-10A13.53,13.53,0,0,0,307.84,25c2.91.26,2.09-.71,2.09-.71-2.75-7.77-12.41-10.88-12.41-10.88-5.26-4.76-8.94-4.19-9.3-4.5a28,28,0,0,0-5.87-3.12c-1.84-.51-8.68-.56-8.68-.56A9.36,9.36,0,0,0,267.54,2a4.34,4.34,0,0,0-4,1.94c-.87,1.07-.77,1-1.48.35s-1.43-.86-3.78-.81S255.58,5,254.66,5.86s-1.32-.62-1.84-1.13S251,3,247.41,4.27s-4,4.55-4.44,6.13-2.35,5-3.43,7a6.24,6.24,0,0,0,0,5.42,10.72,10.72,0,0,0,2.34,2.33l-.19.07s-5.21,6.33-6.75,8.17-2.24,3.37-1.73,8.48c0,0,.41.82-.82,2.14s-7.05,7.36-8.07,8.18-3.17,1.53-2.25,3.57A9.92,9.92,0,0,0,226.41,61a6.71,6.71,0,0,1-.4,2.15c-.41,1-1.84,3.47.4,6.23a6.31,6.31,0,0,1-.51,1.94,6.17,6.17,0,0,0,.11,4.29c.61,1.84.1,1.74-.41,2.76a11.05,11.05,0,0,0-2.15,8.58c.62,5.52,8.07,5.11,8.07,5.11h10.07c1.06,1.17,4.51,5.13,5.26,8.9.87,4.39,1.53,9.35,2.25,11s-5.22,6.49-5.22,6.49-16,16.14-17.47,17.57c0,0,1.84-.15,4.24,2s6.49,8.33,8.28,18.24,10.52,18.19,10.52,18.19,5.26,4.75,9.3,6c0,0,3.37-9.8,8.58-13.89s16.25-7,16.25-7,9.55-1.89,15.73-7.2,11.8-12.77,13.64-16.2,5.06-8,5.06-8-9.76-9.76-12.37-12.26-10.93-10.76-11.06-13.48C294.49,100.47,295,91.51,295,91.51Z"/>
          <path class="cls-7" d="M267.05,2l.49,0a9.36,9.36,0,0,1,6.13,3.16s6.84,0,8.68.56a27.57,27.57,0,0,1,5.87,3.12c.36.31,4-.26,9.3,4.5,0,0,9.66,3.11,12.41,10.88,0,0,.64.75-1.22.75-.24,0-.53,0-.87,0a13.53,13.53,0,0,1,3.78,5.21,25.68,25.68,0,0,1,1.33,10,13,13,0,0,0,1,5.42,3.17,3.17,0,0,1-1.69-1.48s1.43,8.32-.4,12.87-4.6,8.94-5.62,13.69a2.62,2.62,0,0,1-1.33-1.74.54.54,0,0,0-.32-.11c-.22,0-.51.15-.75.78-.46,1.17-4.91,6.43-6,9.86S297,93.56,297,93.56h0c-.09,0-.58-.11-2-2.06,0,0-.47,9-.38,10.85.13,2.72,8.46,11,11.06,13.48S318,128.1,318,128.1s-3.22,4.54-5.06,8-7.46,10.89-13.64,16.2-15.73,7.2-15.73,7.2-11,2.91-16.25,7-8.58,13.89-8.58,13.89c-4-1.22-9.3-6-9.3-6s-8.73-8.28-10.52-18.19-5.87-16.09-8.28-18.24a6.62,6.62,0,0,0-4.15-2h-.09c1.49-1.43,17.47-17.57,17.47-17.57s5.93-4.85,5.22-6.49-1.38-6.59-2.25-11c-.75-3.77-4.2-7.73-5.26-8.9H231.18c-1.47,0-7.19-.31-7.73-5.12a11.05,11.05,0,0,1,2.15-8.58c.51-1,1-.92.41-2.76a6.17,6.17,0,0,1-.11-4.29,6.31,6.31,0,0,0,.51-1.94c-2.24-2.76-.81-5.21-.4-6.23a6.71,6.71,0,0,0,.4-2.15A9.92,9.92,0,0,1,222,55.76c-.92-2,1.23-2.75,2.25-3.57s6.84-6.85,8.07-8.18.82-2.14.82-2.14c-.51-5.11.2-6.64,1.73-8.48s6.75-8.17,6.75-8.17l.19-.07a10.72,10.72,0,0,1-2.34-2.33,6.24,6.24,0,0,1,0-5.42c1.08-2,3-5.41,3.43-7s.81-4.85,4.44-6.13a8.61,8.61,0,0,1,2.82-.56,3.32,3.32,0,0,1,2.59,1c.41.4.74,1.37,1.32,1.37a.81.81,0,0,0,.52-.24c.92-.82,1.23-2.3,3.58-2.35h.63c1.86,0,2.5.22,3.15.82.32.31.48.48.64.48s.37-.25.84-.83a4.45,4.45,0,0,1,3.55-2m0-2h0a6.12,6.12,0,0,0-4.63,2.16,7,7,0,0,0-3.55-.66h-.67a5,5,0,0,0-4,1.78,5.26,5.26,0,0,0-4-1.58,10.57,10.57,0,0,0-3.48.68c-4.31,1.51-5.19,5.26-5.61,7,0,.17-.08.32-.11.46A37.1,37.1,0,0,1,238.55,15l-.78,1.45a8.13,8.13,0,0,0,0,7.31A7.2,7.2,0,0,0,239,25.31l-5.61,6.8c-1.93,2.31-2.75,4.39-2.19,10a.88.88,0,0,0,0,.16,1.94,1.94,0,0,1-.32.43c-1.37,1.49-7,7.29-7.85,8l-.54.36c-1,.65-3.73,2.38-2.28,5.59A12.83,12.83,0,0,0,224.27,62a2.65,2.65,0,0,1-.12.37,2.86,2.86,0,0,1-.12.27,7.2,7.2,0,0,0,.27,7.19,3.08,3.08,0,0,1-.18.56,8,8,0,0,0,0,5.82,4.69,4.69,0,0,1,.14.48,5.33,5.33,0,0,0-.44.75c0,.06-.16.25-.25.39-.88,1.29-2.69,4-2.1,9.3.57,5.09,5.39,6.9,9.72,6.9h9.52c2.28,2.67,3.79,5.29,4.19,7.28.27,1.4.53,2.86.77,4.26a52.38,52.38,0,0,0,1.42,6.67,22.47,22.47,0,0,1-4.46,4.6l-.16.14c-.16.16-16,16.15-17.43,17.54a2,2,0,0,0-.48,2.35,1.93,1.93,0,0,0,1.72,1.11l.27,0a5.07,5.07,0,0,1,2.78,1.49c1.88,1.67,5.89,7.41,7.64,17.1,1.88,10.43,10.74,18.92,11.12,19.28s5.68,5.1,10.09,6.44a1.93,1.93,0,0,0,.58.08,2,2,0,0,0,1.89-1.35c0-.09,3.25-9.3,7.93-13s14.64-6.4,15.46-6.62c1-.2,10.29-2.23,16.58-7.64A72.07,72.07,0,0,0,314.71,137c1.76-3.27,4.9-7.71,4.93-7.76a2,2,0,0,0-.22-2.57c-.4-.4-9.8-9.8-12.39-12.29-6.5-6.24-10.24-10.93-10.45-12.16,0-.91.07-4,.19-6.68l.22,0a2,2,0,0,0,.6-.09,2,2,0,0,0,1.42-2c-.11-4,0-11.17.72-13.42.64-1.94,2.74-4.9,4.13-6.85.33-.47.61-.86.84-1.2a4.38,4.38,0,0,0,.66.43,2,2,0,0,0,2.85-1.37,39.78,39.78,0,0,1,3.36-8.61c.74-1.54,1.51-3.14,2.16-4.75,1.21-3,1.19-7.25,1-10.27a2,2,0,0,0,.8-.57,2,2,0,0,0,.27-2.2,11.23,11.23,0,0,1-.82-4.35,27.65,27.65,0,0,0-1.47-10.94,16.13,16.13,0,0,0-2-3.43,2.31,2.31,0,0,0,.22-2.62c-2.82-7.57-11.19-11-13.19-11.75-4.52-4-8.1-4.42-9.46-4.59h0a28.12,28.12,0,0,0-6.18-3.18c-1.7-.48-6.34-.6-8.4-.63A11.1,11.1,0,0,0,267.74,0a5.32,5.32,0,0,0-.69,0Z"/>
        </g>
        <path class="cls-8" d="M296.19,88.3s-8.73-7.51-7.05-15.93-.46-8.74,2-12.42S296,34.36,296,34.36l-14.1,3.22-3.37,7.81-8.28-1.07s-6-4.9-7.66-5.52-.3-7.35-.3-7.35l2.29-7.82-5.21-2.76s-6-.91-7.66-.15-8,5.21-8,5.21l-2.6-6.13s2.45-10,4.14-11.19a32.61,32.61,0,0,0,4.13-4.13l3.07,2.45,1.38,1.38,3.22-3.22,3.06-.31s3.83,1.08,4.44.62,2.3-2.15,3.22-2a8.44,8.44,0,0,1,5.83,3.53s11.64-1.38,14.4,3.22c0,0,8.58,3.06,9.2,4.75s3.52.76,3.52.76l6,6.29-.62,2.6,4,6.44L312,36.05l-.31,4.59-.31,11.19-1.07,6.59L306,68.07l-2.6.46-3.53,4.75-3.22,6.44Z"/>
        <g>
          <path class="cls-9" d="M273.41,57.6c-.77,1.31-1,5.11-.92,6.44,0,.27,0,.88,0,1.68A10.7,10.7,0,0,1,273.81,64a17.7,17.7,0,0,0-.88,5.13,4.73,4.73,0,0,1,0,.8l.21,0s2.76,1.18,6.85-1.17a21.93,21.93,0,0,0,6.89-5.67c.72-1,2.92-4.34,2.35-10.73,0,0,.31-2.65-3.72-4.08,0,0-2.2-1.18-5.52,2.6,0,0-2.45,3.07-3,3.63a18.92,18.92,0,0,1,2.29-4.4c2.07-2.79,3.27-3.88,6.19-3.78s4.44,1.28,5.21,2.71,1.68,7.41,2.09,7.26-.18-3.38-.33-4.65a8.91,8.91,0,0,0-1.59-4,6.8,6.8,0,0,0-4.85-2.3c-2.68.13-4.16.26-5.85,2.2-1.54,1.78-6,8.82-6.73,10A0,0,0,0,1,273.41,57.6Zm7.64,9c-.81.31-1.61-.38-.35-1.69a3.78,3.78,0,0,1,3.07-1.15C282.66,66,281.85,66.31,281.05,66.62ZM285,51.56c2.11,0,2.76,3,2.49,4.94s-1.72,1.31-2,.39.38-2.45-.61-3.87S285,51.56,285,51.56Zm-8.26,10.59a5.82,5.82,0,0,0,.92-.82c.78-1.1.15-3.37,2.4-2.91,0,0-1.94-6.08,2.56-8.63,0,0,1.58-1,.91.76,0,0-1.63,1.18-1.89,2.3A2.74,2.74,0,0,0,283,55.61c.82.46,4.7,4.65.51,6.79,0,0-1.07.31-3.78,1.28,0,0-1.22.77-1.78,1.23S274.43,63.94,276.73,62.15Z"/>
          <path class="cls-9" d="M297.16,112.87s-4.75-7.61-5-13.33c-.17-3.65,0-8.78.18-12-.88-1.46-1.92-3.27-3.15-5.51,0,0-1.94-2.86-1.63-8.22s1-10.12,1-10.12-6.95,10.93-16,8.53l-.05,0c0,1.85-.06,3.39-.1,3.8-.1,1.13-.1,2.45-3,8.18s-6.85,6.23-7.56,6.43-9.51.21-12.06.21a26.62,26.62,0,0,0-3.64.37c4.72,5.33,5.63,18.71,5.63,19.65s.46,1.38,1.13,3.17A87.75,87.75,0,0,1,255,127.23c0,2.3-.66,1.89-1.43.66s-2.4-11.65-2.4-11.65-2.81,3.27-8,9.91-4.8,9.86-4.8,9.86c4.39,5.11,7.92,17,9.35,22.58s3.06,5.77,3.06,5.77c1.48-5.56,7.82-9.55,13.49-13.28s11.34-5.16,19.77-8.12,12.66-6.33,12.66-6.33c8-5.57,10.17-10.53,10.17-10.53C303.8,123.29,297.16,112.87,297.16,112.87Zm-43.62,33c-.72,1.89-1.94,1.23-2.25.26s.26-2.91,1-4.91,1.76-7.87,1.84-7.66C255.23,136.63,254.25,144,253.54,145.87ZM262,106.18c-.72,1-.92,3.37-1.28,5.47s-1.17.46-1.17.46C259.31,106.33,262,104,262,104,263,104.19,262.68,105.21,262,106.18ZM283.52,75c.36-.66.57-1.82,1.28-1.23.31.26.05,1.54-.36,2.3s-2.5,7.46-2.5,7.46C281.94,78.34,283.17,75.63,283.52,75ZM277.09,85.7c5.26,7.81,3.69,24.24,3.32,25.49-.61,2-1.94,6.08-1.94,6.08s-.16-14.92-.56-21.2-2-8.28-2.05-9.76S277.09,85.7,277.09,85.7Zm-1.53,49.75c-2.86.61-5.93,1.43-6.7,1s-.86-1.38.31-2.24,9.55-1.08,9.55-1.08c9.33,0,14.08.34,15.76.49h.13l.2,0,.22,0h0l-.55-.06A177.52,177.52,0,0,0,275.56,135.45Z"/>
          <path d="M247.1,41.91a29.66,29.66,0,0,1,4,2.33,29.65,29.65,0,0,0,3.33,2c.73.34,1.15-.92.38-1.65s-4.93-5-6.2-6.34a1.61,1.61,0,0,0-.86-.48,34.29,34.29,0,0,0-10.14-.65c-.1,0-1.68,1-.92,3.92.21.77.91,2,1.7,1.93a32.9,32.9,0,0,0,3.44-.57A40.76,40.76,0,0,1,247.1,41.91Z"/>
          <path d="M241.87,47a6,6,0,0,0,4.44.33c.77-.33,1.79.13,2.25.2s1.75.39,2,.18,0-.74-.38-1.07-4.16-2-4.81-2.3c-.33-.16-2-1.25-3.18-.61s-2.1.87-2.1,2.63a5.08,5.08,0,0,0,1,3,6,6,0,0,1,0,4.09,1,1,0,0,0,.2,1.1s1.38-2.91.87-4.57a7.37,7.37,0,0,0-1.07-2.15,2.25,2.25,0,0,1,0-1.35A4.5,4.5,0,0,0,241.87,47Z"/>
          <path d="M277.91,64.91c.56-.46,1.78-1.23,1.78-1.23,2.71-1,3.78-1.28,3.78-1.28,4.19-2.14.31-6.33-.51-6.79a2.74,2.74,0,0,1-1.33-2.76c.26-1.12,1.89-2.3,1.89-2.3.67-1.78-.91-.76-.91-.76-4.5,2.55-2.56,8.63-2.56,8.63-2.25-.46-1.62,1.81-2.4,2.91a5.82,5.82,0,0,1-.92.82C274.43,63.94,277.34,65.37,277.91,64.91Z"/>
          <path d="M285.49,56.89c.27.92,1.73,1.53,2-.39s-.38-4.94-2.49-4.94c0,0-1.11,0-.11,1.46S285.22,56,285.49,56.89Z"/>
          <path d="M280.7,64.93c-1.26,1.31-.46,2,.35,1.69s1.61-.65,2.72-2.84A3.78,3.78,0,0,0,280.7,64.93Z"/>
          <path d="M278.47,117.27s1.33-4,1.94-6.08c.37-1.25,1.94-17.68-3.32-25.49,0,0-1.28-.87-1.23.61s1.64,3.47,2.05,9.76S278.47,117.27,278.47,117.27Z"/>
          <path d="M262,104s-2.66,2.34-2.45,8.12c0,0,.81,1.63,1.17-.46s.56-4.5,1.28-5.47S263,104.19,262,104Z"/>
          <path d="M252.26,141.22c-.71,2-1.27,3.94-1,4.91s1.53,1.63,2.25-.26,1.69-9.24.56-12.31C254,133.35,253,139.23,252.26,141.22Z"/>
          <path d="M294.81,133.66l-.2,0h-.13l.55.06Z"/>
          <path d="M269.17,134.23c-1.17.86-1.07,1.83-.31,2.24s3.84-.41,6.7-1a177.52,177.52,0,0,1,18.92-1.81c-1.68-.15-6.43-.49-15.76-.49C278.72,133.15,270.35,133.36,269.17,134.23Z"/>
          <path d="M295,133.7Z"/>
          <path d="M284.8,73.74c-.71-.59-.92.57-1.28,1.23s-1.58,3.37-1.58,8.53c0,0,2.1-6.69,2.5-7.46S285.11,74,284.8,73.74Z"/>
          <path d="M305.64,115.84c-2.6-2.51-10.26-10.48-10.57-13.18-.2-1.78-.16-7.45-.11-11.15,1.62,2.19,2.05,2,2.05,2s-.31-10.67.82-14.09,5.57-8.69,6-9.86,1.07-.67,1.07-.67a2.62,2.62,0,0,0,1.33,1.74c1-4.75,3.78-9.14,5.62-13.69s.4-12.87.4-12.87A3.17,3.17,0,0,0,314,45.6a13,13,0,0,1-1-5.42,25.68,25.68,0,0,0-1.33-10A13.53,13.53,0,0,0,307.84,25c2.91.26,2.09-.71,2.09-.71-2.75-7.77-12.41-10.88-12.41-10.88-5.26-4.76-8.94-4.19-9.3-4.5a28,28,0,0,0-5.87-3.12c-1.84-.51-8.68-.56-8.68-.56A9.36,9.36,0,0,0,267.54,2a4.34,4.34,0,0,0-4,1.94c-.87,1.07-.77,1-1.48.35s-1.43-.86-3.78-.81S255.58,5,254.66,5.86s-1.32-.62-1.84-1.13S251,3,247.41,4.27s-4,4.55-4.44,6.13-2.35,5-3.43,7a6.24,6.24,0,0,0,0,5.42,10.72,10.72,0,0,0,2.34,2.33l-.19.07s-5.21,6.33-6.75,8.17-2.24,3.37-1.73,8.48c0,0,.41.82-.82,2.14s-7.05,7.36-8.07,8.18-3.17,1.53-2.25,3.57A9.92,9.92,0,0,0,226.41,61a6.71,6.71,0,0,1-.4,2.15c-.41,1-1.84,3.47.4,6.23a6.31,6.31,0,0,1-.51,1.94,6.17,6.17,0,0,0,.11,4.29c.61,1.84.1,1.74-.41,2.76a11.05,11.05,0,0,0-2.15,8.58c.62,5.52,8.07,5.11,8.07,5.11h10.07c1.06,1.17,4.51,5.13,5.26,8.9.87,4.39,1.53,9.35,2.25,11s-5.22,6.49-5.22,6.49-16,16.14-17.47,17.57c0,0,1.84-.15,4.24,2s6.49,8.33,8.28,18.24,10.52,18.19,10.52,18.19,5.26,4.75,9.3,6c0,0,3.37-9.8,8.58-13.89s16.25-7,16.25-7,9.55-1.89,15.73-7.2,11.8-12.77,13.64-16.2,5.06-8,5.06-8S308.25,118.34,305.64,115.84Zm-4-46.85c-7.05,7-5.86,17.79-6.44,17.17C290.78,81.41,299.36,69,301.05,68S301.66,69,301.66,69Zm-8.12,8.13S293.92,70,300.05,67C300.05,67,294.46,73.28,293.54,77.12Zm6-15.87c1.07-1.45,2.32-10.35,2.38-10.11C303.5,58.34,299.59,61.25,299.59,61.25ZM299.16,20c3.24-.23,4.31,3.29,4.31,3.29C302.3,21.39,299,20,299.16,20Zm3.65,41.91c.53-.31,1.22-3.07,1.22-3.07A2.39,2.39,0,0,1,302.81,61.87Zm1.45,1.68a2.82,2.82,0,0,1,.92-2.45,7.38,7.38,0,0,0,1.15-2.83,3.18,3.18,0,0,1-.61,3.29C305.18,62.25,304.26,63.55,304.26,63.55ZM304.67,49c.51-.56.4-3.83.46-3.68A3.39,3.39,0,0,1,304.67,49Zm1.43,2.3c.62-.92,1-7.91,1-7.77C308.55,48.41,306.1,51.27,306.1,51.27Zm.11-19.49c2.4,1.25,2.14,4.32,1.86,3.7S306.21,31.78,306.21,31.78Zm1.2,30.78c-1.08,1-1.54,3.68-1.54,3.68a4.71,4.71,0,0,1,1-4.68c.84-.61,1.76-4.6,1.76-4.6C309.63,58,308.48,61.56,307.41,62.56ZM308.94,53c.84-2.6-.45-13.57-.33-13.43C313.15,45.29,308.94,53,308.94,53Zm1.86-15.78c-1-3.93-4.76-8.85-4.65-8.79A9.84,9.84,0,0,1,310.8,37.17Zm-4.39-1.84a6.33,6.33,0,0,0-.82-1.66A1.31,1.31,0,0,1,306.41,35.33Zm-.84-12.11c-2.2-4.11-7.85-6.14-7.74-6.15C304.19,16.63,305.57,23.22,305.57,23.22Zm-7.82,42.94a15,15,0,0,0-5.44,8.66S292.08,67.54,297.75,66.16Zm-6.13,4.67s-.15-5.44,4.29-6C295.91,64.78,292.46,67.61,291.62,70.83ZM280,50.91c3.32-3.78,5.52-2.6,5.52-2.6,4,1.43,3.72,4.08,3.72,4.08.57,6.39-1.63,9.71-2.35,10.73A21.93,21.93,0,0,1,280,68.79C275.86,71.14,273.1,70,273.1,70l-.21,0a4.73,4.73,0,0,0,0-.8,17.7,17.7,0,0,1,.88-5.13,10.7,10.7,0,0,0-1.28,1.74c0-.8,0-1.41,0-1.68-.1-1.33.15-5.13.92-6.44a0,0,0,0,0,0,0c3.16-7.07,5.19-8.2,6.73-10,1.69-1.94,3.17-2.07,5.85-2.2a6.8,6.8,0,0,1,4.85,2.3,8.91,8.91,0,0,1,1.59,4c.15,1.27-.49,5-.9,5.11s.77-5.37-.86-7.72a6,6,0,0,0-5.21-2.71c-2.92-.1-4.12,1-6.19,3.78a18.92,18.92,0,0,0-2.29,4.4C277.5,54,280,50.91,280,50.91ZM263.3,34.72c6.07.82,9,6.23,9,6.23C268.71,37.53,263.07,34.69,263.3,34.72Zm7.3,7.92s-5.62-4.91-8.38-5.57A9.74,9.74,0,0,1,270.6,42.64Zm-6.9-10.73c6.75.41,10,7.05,10,7.05C271.78,35.69,263.55,31.9,263.7,31.91Zm.36-3.68c9.86.26,13.08,9.91,13.08,9.91C270.75,30.22,264.06,28.23,264.06,28.23Zm.51-2.5c10.22-1.33,15.94,11,15.94,11C272.9,26.75,264.57,25.73,264.57,25.73Zm22.84-10.37C292.69,14,292.85,18,292.85,18,291.62,15.66,287.41,15.36,287.41,15.36Zm6.43,48.5s-2.3,1.53-2.83,3.07C291,66.93,290.78,63.32,293.84,63.86Zm-25-59.61c2.6,0,5.28,3.68,5.28,3.68,10.2-2.38,13.57,3.6,13.57,3.6,5.44.15,7,2.37,7.35,3.29s-1.15.77-1.15.77c-1.76-2.76-7.2-2.45-7.2-2.45C284,7.7,273.15,9.69,273.15,9.69,270.55,5.4,267,5.56,267,5.32,266.64,3.48,268.79,4.25,268.79,4.25ZM283,13a8.66,8.66,0,0,0-7.2.08S279.82,9.15,283,13Zm-10.42-.15c-1.07-2.61-4.74-3.23-4.45-3.3C272.54,8.54,272.62,12.83,272.62,12.83Zm10.6,20.61a28.6,28.6,0,0,0-18.44-11.39C277.6,19.85,283.22,33.44,283.22,33.44ZM265.11,13.35c-2.27,2-3.24,3.49-5,4.89-1.19,1-1.55,1.2-1.55,1.2a6.34,6.34,0,0,1,.59-1.71,24.41,24.41,0,0,1,5.65-5,5.52,5.52,0,0,1,1.35-.52A14.9,14.9,0,0,1,265.11,13.35Zm-10.19,4.92c0,.92-1.18,1.28-1.18,1.28s-.15-1.64-.15-1.79c-.05-3.32,4.33-7.38,5.72-8.12a3.14,3.14,0,0,1,1.85-.45s-1,1-1.15,1.19-3,2.82-4.13,4.25A4.75,4.75,0,0,0,254.92,18.27Zm1.38-1.48c.76-1.59,5.21-5.88,6.33-6.54a6.94,6.94,0,0,1,1.71-.79,12.48,12.48,0,0,1-2.11,2.67c-1.28,1.22-3.52,3.2-4.28,4.07-1.13,1.28-2.06,2.48-2.06,2.48A4.42,4.42,0,0,1,256.3,16.79ZM252.58,13a25.11,25.11,0,0,1,3.49-4.71,8.7,8.7,0,0,1,8.27-2.45s.73.19,1,.3a17.24,17.24,0,0,0-4.22.62c-3,.69-3.14,1-8.62,7.58C252.33,14.62,251.82,14.36,252.58,13Zm-.53,2.45c.23.58-1.23,1.34-.5,4.87a3.85,3.85,0,0,1-.54-4.6S251.82,14.9,252.05,15.47Zm-.16-7.16s.16,2.37-.53,3.37-2.42,1.88-2.88,3.33a11.87,11.87,0,0,0,.42,5.63,2.59,2.59,0,0,1,.07,1.24s-.55,0-1.14-.78c-1.19-1.6-1-5.13-.69-6a8.71,8.71,0,0,1,2.3-3.37C250.67,10.68,250.78,10.57,251.89,8.31Zm-7.12,3.83A55.36,55.36,0,0,0,248.48,8c.7-1,1.23-2.95,1.38-2.64a6.41,6.41,0,0,1-.08,3c-.3,1.53-2.14,2.91-3.4,4.21a7,7,0,0,0-1.77,5.25,13.11,13.11,0,0,0,.69,3.41,3.5,3.5,0,0,1,0,2.34c-1.91-2.53-2-4-2-5.48S243.58,13.48,244.77,12.14Zm-17,56.6a3.1,3.1,0,0,1-1-2.66c.16-1.12,1-.3,1-.3a10.62,10.62,0,0,0,1,1.58c.46.56,2.2.61,4,.77A3,3,0,0,1,235.25,70C231.78,69.71,228.36,69.3,227.74,68.74Zm9.61-1.64c-4.5-3.78-6.13-4.7-9.1-5.1,0,0-.92-1.79-.35-2.2a2.75,2.75,0,0,1,3,.56,5,5,0,0,0,3.27,1,2.38,2.38,0,0,0,2.19-2.25A4.69,4.69,0,0,0,233,53.82s-1.63,0-1,.92c0,0,1.84.82,2.2,1.59s.82,3.26-.05,3.67-.82-1.22-1.18-1.63-1.68-1.23-4.95-.87a1.93,1.93,0,0,0-1.53.66c-.51.72-1.64-.56-1.95-1.53s-.61-1.63.41-2.4,9-8.07,9.66-9.6a15.64,15.64,0,0,0,.71-5.77c-.1-1.64,3.27-3.58,4.45-5s3.57-4.75,4.75-6.08,2.19-3,4.85-4.44c.46-.25.52-.35.33-.36l.18-.1c4.29-2.56,4.65-1.48,4.65-1.48.92,1.07,6.74,5.67,6.74,5.67.05.25-.87.3-1.73.56s-.92,1.58.61,2,.71,1.23.71,1.23c-1.48-.06-4.53,1.35-2.5,2,3.73,1.17,1.69,2,1.69,2-3.37.15-3.89,2.56-3.89,2.56a70.18,70.18,0,0,0,7.21,2.8c5.87,2.1,4,6.13,4,6.13,9.45,0,9.61,2.46,9.61,2.46l-10.22-1-.46,2.2c9.86.36,8.94,2,8.94,2l-9.45-.71-.36,2.09.67.05c6.59-.2,6.89,1.59,6.89,1.59l-7.76-.56-.31,2.09a15,15,0,0,1-1.43,4.19,22.87,22.87,0,0,1-1.74,3A15.55,15.55,0,0,0,263.07,60a3.52,3.52,0,0,0-.48-2.47v0s-2.35,8-6.44,11.65a7.46,7.46,0,0,0,.72-5.62s-2.66,4.8-6,6A14,14,0,0,1,237.35,67.1Zm59.4,69.53S292.52,140,284.09,143s-14.1,4.39-19.77,8.12-12,7.72-13.49,13.28c0,0-1.63-.15-3.06-5.77s-5-17.47-9.35-22.58c0,0-.36-3.21,4.8-9.86s8-9.91,8-9.91,1.63,10.43,2.4,11.65,1.48,1.64,1.43-.66A87.75,87.75,0,0,0,252.93,114c-.67-1.79-1.13-2.2-1.13-3.17s-.91-14.32-5.63-19.65a26.62,26.62,0,0,1,3.64-.37c2.55,0,11.34,0,12.06-.21s4.7-.71,7.56-6.43,2.86-7,3-8.18c0-.41.07-1.95.1-3.8l.05,0c9.09,2.4,16-8.53,16-8.53s-.71,4.75-1,10.12S289.19,82,289.19,82c1.23,2.24,2.27,4,3.15,5.51-.15,3.23-.35,8.36-.18,12,.25,5.72,5,13.33,5,13.33s6.64,10.42,9.76,13.23C306.92,126.1,304.72,131.06,296.75,136.63Z"/>
        </g>
      </g>
    </g>
  </g>
</svg>
