<svg xmlns="http://www.w3.org/2000/svg" xmlns:xlink="http://www.w3.org/1999/xlink" viewBox="0 0 100.22 182.35">
  <defs>
    <style>
      .cls-1 {
        fill: #c1301d;
      }

      .cls-2 {
        fill: url(#linear-gradient);
      }

      .cls-3 {
        fill: #9b8d60;
      }

      .cls-4 {
        fill: none;
      }
    </style>
    <linearGradient id="linear-gradient" y1="91.18" x2="100.22" y2="91.18" gradientUnits="userSpaceOnUse">
      <stop offset="0" stop-color="#675e4c"/>
      <stop offset="1" stop-color="#c2af75"/>
    </linearGradient>
  </defs>
  <g id="Layer_2" data-name="Layer 2">
    <g id="manLogo">
      <g>
        <g>
          <path class="cls-1" d="M75.18,91.51c1.62,2.19,2,2,2,2s-.31-10.67.82-14.09,5.56-8.69,6-9.86,1.08-.67,1.08-.67a2.62,2.62,0,0,0,1.32,1.74c1-4.75,3.78-9.14,5.62-13.69s.41-12.87.41-12.87a3.14,3.14,0,0,0,1.69,1.48,13,13,0,0,1-1-5.42,25.68,25.68,0,0,0-1.33-10A13.53,13.53,0,0,0,88.06,25c2.91.26,2.09-.71,2.09-.71-2.76-7.77-12.41-10.88-12.41-10.88-5.26-4.76-8.94-4.19-9.3-4.5a28.3,28.3,0,0,0-5.87-3.12c-1.84-.51-8.69-.56-8.69-.56A9.34,9.34,0,0,0,47.75,2a4.34,4.34,0,0,0-4,1.94C42.85,5,43,5,42.24,4.32s-1.43-.86-3.78-.81S35.8,5,34.88,5.86,33.55,5.24,33,4.73,31.25,3,27.63,4.27s-4,4.55-4.45,6.13-2.35,5-3.42,7a6.24,6.24,0,0,0-.05,5.42,10.51,10.51,0,0,0,2.34,2.33l-.2.07s-5.21,6.33-6.74,8.17-2.25,3.37-1.73,8.48c0,0,.4.82-.82,2.14s-7,7.36-8.07,8.18-3.17,1.53-2.25,3.57A9.87,9.87,0,0,0,6.63,61a6.57,6.57,0,0,1-.41,2.15c-.41,1-1.84,3.47.41,6.23a6.31,6.31,0,0,1-.51,1.94,6.16,6.16,0,0,0,.1,4.29c.62,1.84.11,1.74-.41,2.76a11.07,11.07,0,0,0-2.14,8.58C4.28,92.44,11.74,92,11.74,92H21.81c1.06,1.17,4.51,5.13,5.26,8.9.86,4.39,1.53,9.35,2.24,11s-5.21,6.49-5.21,6.49S8.11,134.53,6.63,136c0,0,1.84-.15,4.24,2s6.49,8.33,8.28,18.24,10.52,18.19,10.52,18.19,5.26,4.75,9.3,6c0,0,3.37-9.8,8.58-13.89s16.24-7,16.24-7,9.56-1.89,15.74-7.2,11.8-12.77,13.64-16.2a93.54,93.54,0,0,1,5-8s-9.75-9.76-12.36-12.26S74.93,105.08,74.8,102.36C74.71,100.47,75.18,91.51,75.18,91.51Z"/>
          <path class="cls-2" d="M47.27,2a3.87,3.87,0,0,1,.48,0,9.34,9.34,0,0,1,6.13,3.16s6.85,0,8.69.56a27.83,27.83,0,0,1,5.87,3.12c.36.31,4-.26,9.3,4.5,0,0,9.65,3.11,12.41,10.88,0,0,.64.75-1.22.75-.25,0-.53,0-.87,0a13.53,13.53,0,0,1,3.78,5.21,25.68,25.68,0,0,1,1.33,10,13,13,0,0,0,1,5.42,3.14,3.14,0,0,1-1.69-1.48s1.43,8.32-.41,12.87-4.59,8.94-5.62,13.69a2.62,2.62,0,0,1-1.32-1.74.59.59,0,0,0-.33-.11c-.21,0-.5.15-.75.78-.46,1.17-4.9,6.43-6,9.86s-.82,14.09-.82,14.09h0c-.09,0-.58-.11-2-2.06,0,0-.47,9-.38,10.85.13,2.72,8.46,11,11.06,13.48S98.22,128.1,98.22,128.1a93.54,93.54,0,0,0-5,8c-1.84,3.43-7.46,10.89-13.64,16.2s-15.74,7.2-15.74,7.2-11,2.91-16.24,7S39,180.35,39,180.35c-4-1.22-9.3-6-9.3-6s-8.73-8.28-10.52-18.19S13.27,140.1,10.87,138a6.62,6.62,0,0,0-4.15-2H6.63c1.48-1.43,17.47-17.57,17.47-17.57s5.93-4.85,5.21-6.49-1.38-6.59-2.24-11c-.75-3.77-4.2-7.73-5.26-8.9H11.4c-1.47,0-7.2-.31-7.73-5.12a11,11,0,0,1,2.15-8.58c.51-1,1-.92.4-2.76a6.16,6.16,0,0,1-.1-4.29,6.31,6.31,0,0,0,.51-1.94c-2.25-2.76-.81-5.21-.41-6.23A6.57,6.57,0,0,0,6.63,61a9.87,9.87,0,0,1-4.39-5.21c-.92-2,1.23-2.75,2.25-3.57s6.84-6.85,8.07-8.18.82-2.14.82-2.14c-.52-5.11.2-6.64,1.73-8.48s6.74-8.17,6.74-8.17l.2-.07a10.51,10.51,0,0,1-2.34-2.33,6.24,6.24,0,0,1,.05-5.42c1.07-2,3-5.41,3.42-7S24,5.55,27.63,4.27a8.57,8.57,0,0,1,2.82-.56,3.32,3.32,0,0,1,2.59,1c.4.4.74,1.37,1.31,1.37a.83.83,0,0,0,.53-.24c.92-.82,1.23-2.3,3.58-2.35h.63c1.85,0,2.5.22,3.15.82.32.31.48.48.63.48s.37-.25.85-.83a4.44,4.44,0,0,1,3.55-2m0-2h0a6.1,6.1,0,0,0-4.63,2.16,7.08,7.08,0,0,0-3.55-.66h-.68a5,5,0,0,0-4,1.78,5.26,5.26,0,0,0-4-1.58A10.67,10.67,0,0,0,27,2.39c-4.31,1.51-5.18,5.26-5.6,7,0,.17-.08.32-.11.46A38.3,38.3,0,0,1,18.77,15L18,16.47a8.13,8.13,0,0,0,0,7.31,6.82,6.82,0,0,0,1.22,1.53l-5.6,6.8c-1.93,2.31-2.75,4.39-2.19,10a.88.88,0,0,0,0,.16,2.35,2.35,0,0,1-.32.43c-1.38,1.49-7,7.29-7.85,8L2.7,51c-1,.65-3.73,2.38-2.28,5.59A12.83,12.83,0,0,0,4.49,62l-.12.37c0,.08-.07.17-.12.27a7.2,7.2,0,0,0,.27,7.19,2.44,2.44,0,0,1-.19.56,8,8,0,0,0,0,5.82c.07.22.11.37.14.48a5.33,5.33,0,0,0-.44.75c0,.06-.16.25-.26.39-.87,1.29-2.68,4-2.09,9.3C2.25,92.23,7.07,94,11.4,94h9.51c2.29,2.67,3.8,5.29,4.19,7.28.28,1.4.54,2.86.78,4.26a49,49,0,0,0,1.42,6.67,22.32,22.32,0,0,1-4.47,4.6l-.15.14c-.16.16-16,16.15-17.44,17.54a2,2,0,0,0-.47,2.35A1.92,1.92,0,0,0,6.49,138l.27,0a5.1,5.1,0,0,1,2.78,1.49c1.88,1.67,5.89,7.41,7.64,17.1,1.88,10.43,10.74,18.92,11.11,19.28s5.68,5.1,10.1,6.44a1.89,1.89,0,0,0,.58.08A2,2,0,0,0,40.86,181c0-.09,3.25-9.3,7.92-13s14.65-6.4,15.47-6.62c1-.2,10.29-2.23,16.58-7.64A72.07,72.07,0,0,0,94.93,137c1.76-3.27,4.89-7.71,4.93-7.76a2,2,0,0,0-.22-2.57c-.4-.4-9.8-9.8-12.39-12.29C80.74,108.15,77,103.46,76.8,102.23c0-.91.07-4,.19-6.68l.22,0a2,2,0,0,0,2-2.06c-.12-4,0-11.17.72-13.42.63-1.94,2.74-4.9,4.13-6.85l.84-1.2a4.38,4.38,0,0,0,.66.43,2,2,0,0,0,2.85-1.37,39.78,39.78,0,0,1,3.36-8.61c.74-1.54,1.5-3.14,2.16-4.75,1.21-3,1.18-7.25,1-10.27A2,2,0,0,0,96,44.7a11.23,11.23,0,0,1-.82-4.35,27.65,27.65,0,0,0-1.47-10.94,16.13,16.13,0,0,0-2-3.43A2.37,2.37,0,0,0,92,23.36c-2.82-7.57-11.19-11-13.19-11.75-4.52-4-8.1-4.42-9.47-4.59h0A27.82,27.82,0,0,0,63.1,3.83c-1.7-.48-6.35-.6-8.4-.63A11.1,11.1,0,0,0,48,0a5.32,5.32,0,0,0-.69,0Z"/>
        </g>
        <path class="cls-3" d="M76.41,88.3s-8.73-7.51-7-15.93-.46-8.74,2-12.42,4.91-25.59,4.91-25.59l-14.1,3.22-3.37,7.81-8.28-1.07s-6-4.9-7.66-5.52-.31-7.35-.31-7.35l2.3-7.82-5.21-2.76s-6-.91-7.66-.15-8,5.21-8,5.21L21.4,19.8s2.45-10,4.13-11.19a32.22,32.22,0,0,0,4.14-4.13l3.07,2.45,1.37,1.38,3.22-3.22,3.07-.31s3.83,1.08,4.44.62,2.3-2.15,3.22-2a8.41,8.41,0,0,1,5.82,3.53s11.65-1.38,14.41,3.22c0,0,8.58,3.06,9.19,4.75s3.53.76,3.53.76L87,22l-.61,2.6,4,6.44,1.83,5.06-.3,4.59-.31,11.19-1.07,6.59-4.29,9.65-2.61.46-3.52,4.75-3.22,6.44Z"/>
        <g>
          <path class="cls-4" d="M53.63,57.6c-.77,1.31-1,5.11-.92,6.44,0,.27,0,.88,0,1.68A11.27,11.27,0,0,1,54,64a18.08,18.08,0,0,0-.88,5.13,3.87,3.87,0,0,1,0,.8l.22,0s2.76,1.18,6.85-1.17a22.06,22.06,0,0,0,6.89-5.67c.72-1,2.91-4.34,2.35-10.73,0,0,.31-2.65-3.73-4.08,0,0-2.19-1.18-5.51,2.6,0,0-2.46,3.07-3,3.63a19.18,19.18,0,0,1,2.3-4.4c2.07-2.79,3.27-3.88,6.18-3.78s4.45,1.28,5.21,2.71,1.69,7.41,2.1,7.26-.18-3.38-.33-4.65a9,9,0,0,0-1.59-4,6.8,6.8,0,0,0-4.85-2.3c-2.68.13-4.16.26-5.85,2.2-1.54,1.78-6,8.82-6.73,10A0,0,0,0,0,53.63,57.6Zm7.63,9c-.8.31-1.6-.38-.34-1.69A3.76,3.76,0,0,1,64,63.78C62.87,66,62.07,66.31,61.26,66.62Zm3.95-15.06c2.11,0,2.76,3,2.49,4.94s-1.72,1.31-2,.39.38-2.45-.61-3.87S65.21,51.56,65.21,51.56ZM57,62.15a6.31,6.31,0,0,0,.92-.82c.78-1.1.15-3.37,2.4-2.91,0,0-1.94-6.08,2.55-8.63,0,0,1.59-1,.92.76,0,0-1.63,1.18-1.89,2.3a2.73,2.73,0,0,0,1.33,2.76c.82.46,4.7,4.65.51,6.79,0,0-1.07.31-3.78,1.28,0,0-1.22.77-1.79,1.23S54.65,63.94,57,62.15Z"/>
          <path class="cls-4" d="M77.38,112.87s-4.75-7.61-5-13.33c-.17-3.65,0-8.78.18-12-.88-1.46-1.92-3.27-3.15-5.51,0,0-1.94-2.86-1.63-8.22s1-10.12,1-10.12-6.95,10.93-16,8.53l0,0c0,1.85-.07,3.39-.1,3.8-.11,1.13-.11,2.45-3,8.18S42.8,90.4,42.08,90.6s-9.5.21-12,.21a26.47,26.47,0,0,0-3.64.37C31.11,96.51,32,109.89,32,110.83s.46,1.38,1.12,3.17a86.49,86.49,0,0,1,2.1,13.23c0,2.3-.67,1.89-1.43.66s-2.4-11.65-2.4-11.65-2.81,3.27-8,9.91-4.8,9.86-4.8,9.86c4.39,5.11,7.91,17,9.34,22.58s3.07,5.77,3.07,5.77c1.48-5.56,7.82-9.55,13.49-13.28S55.88,145.92,64.3,143,77,136.63,77,136.63c8-5.57,10.17-10.53,10.17-10.53C84,123.29,77.38,112.87,77.38,112.87Zm-43.62,33c-.72,1.89-1.94,1.23-2.25.26s.25-2.91,1-4.91,1.76-7.87,1.84-7.66C35.44,136.63,34.47,144,33.76,145.87Zm8.43-39.69c-.72,1-.92,3.37-1.28,5.47s-1.18.46-1.18.46c-.2-5.78,2.46-8.12,2.46-8.12C43.26,104.19,42.9,105.21,42.19,106.18ZM63.74,75c.36-.66.57-1.82,1.28-1.23.31.26,0,1.54-.36,2.3s-2.5,7.46-2.5,7.46C62.16,78.34,63.38,75.63,63.74,75ZM57.31,85.7c5.26,7.81,3.69,24.24,3.32,25.49-.62,2-1.94,6.08-1.94,6.08s-.16-14.92-.57-21.2-2-8.28-2-9.76S57.31,85.7,57.31,85.7Zm-1.54,49.75c-2.86.61-5.92,1.43-6.69,1s-.87-1.38.31-2.24,9.55-1.08,9.55-1.08c9.33,0,14.08.34,15.75.49h.14l.2,0,.22,0h0l-.56-.06A178,178,0,0,0,55.77,135.45Z"/>
          <path d="M27.32,41.91a29.1,29.1,0,0,1,4,2.33,30.52,30.52,0,0,0,3.34,2c.73.34,1.15-.92.38-1.65s-4.93-5-6.2-6.34a1.61,1.61,0,0,0-.86-.48,34.29,34.29,0,0,0-10.14-.65c-.11,0-1.69,1-.92,3.92.2.77.9,2,1.7,1.93A32.28,32.28,0,0,0,22,42.44,40.87,40.87,0,0,1,27.32,41.91Z"/>
          <path d="M22.09,47a6,6,0,0,0,4.44.33c.77-.33,1.79.13,2.25.2s1.75.39,2,.18-.05-.74-.38-1.07-4.16-2-4.81-2.3c-.33-.16-2-1.25-3.18-.61s-2.1.87-2.1,2.63a5.16,5.16,0,0,0,1,3,5.84,5.84,0,0,1-.05,4.09,1,1,0,0,0,.21,1.1s1.38-2.91.87-4.57a7.25,7.25,0,0,0-1.08-2.15,2.2,2.2,0,0,1,0-1.35A4.5,4.5,0,0,0,22.09,47Z"/>
          <path d="M58.12,64.91c.57-.46,1.79-1.23,1.79-1.23,2.71-1,3.78-1.28,3.78-1.28,4.19-2.14.31-6.33-.51-6.79a2.73,2.73,0,0,1-1.33-2.76c.26-1.12,1.89-2.3,1.89-2.3.67-1.78-.92-.76-.92-.76-4.49,2.55-2.55,8.63-2.55,8.63-2.25-.46-1.62,1.81-2.4,2.91a6.31,6.31,0,0,1-.92.82C54.65,63.94,57.56,65.37,58.12,64.91Z"/>
          <path d="M65.71,56.89c.27.92,1.72,1.53,2-.39s-.38-4.94-2.49-4.94c0,0-1.11,0-.11,1.46S65.44,56,65.71,56.89Z"/>
          <path d="M60.92,64.93c-1.26,1.31-.46,2,.34,1.69S62.87,66,64,63.78A3.76,3.76,0,0,0,60.92,64.93Z"/>
          <path d="M58.69,117.27s1.32-4,1.94-6.08c.37-1.25,1.94-17.68-3.32-25.49,0,0-1.28-.87-1.23.61s1.63,3.47,2,9.76S58.69,117.27,58.69,117.27Z"/>
          <path d="M42.19,104s-2.66,2.34-2.46,8.12c0,0,.82,1.63,1.18-.46s.56-4.5,1.28-5.47S43.26,104.19,42.19,104Z"/>
          <path d="M32.48,141.22c-.72,2-1.28,3.94-1,4.91s1.53,1.63,2.25-.26,1.68-9.24.56-12.31C34.24,133.35,33.2,139.23,32.48,141.22Z"/>
          <path d="M75,133.66l-.2,0h-.14l.56.06Z"/>
          <path d="M49.39,134.23c-1.18.86-1.07,1.83-.31,2.24s3.83-.41,6.69-1a178,178,0,0,1,18.92-1.81c-1.67-.15-6.42-.49-15.75-.49C58.94,133.15,50.56,133.36,49.39,134.23Z"/>
          <path d="M75.25,133.7Z"/>
          <path d="M65,73.74c-.71-.59-.92.57-1.28,1.23s-1.58,3.37-1.58,8.53c0,0,2.09-6.69,2.5-7.46S65.33,74,65,73.74Z"/>
          <path d="M85.86,115.84c-2.6-2.51-10.27-10.48-10.57-13.18-.2-1.78-.16-7.45-.11-11.15,1.62,2.19,2,2,2,2s-.31-10.67.82-14.09,5.56-8.69,6-9.86,1.08-.67,1.08-.67a2.62,2.62,0,0,0,1.32,1.74c1-4.75,3.78-9.14,5.62-13.69s.41-12.87.41-12.87a3.14,3.14,0,0,0,1.69,1.48,13,13,0,0,1-1-5.42,25.68,25.68,0,0,0-1.33-10A13.53,13.53,0,0,0,88.06,25c2.91.26,2.09-.71,2.09-.71-2.76-7.77-12.41-10.88-12.41-10.88-5.26-4.76-8.94-4.19-9.3-4.5a28.3,28.3,0,0,0-5.87-3.12c-1.84-.51-8.69-.56-8.69-.56A9.34,9.34,0,0,0,47.75,2a4.34,4.34,0,0,0-4,1.94C42.85,5,43,5,42.24,4.32s-1.43-.86-3.78-.81S35.8,5,34.88,5.86,33.55,5.24,33,4.73,31.25,3,27.63,4.27s-4,4.55-4.45,6.13-2.35,5-3.42,7a6.24,6.24,0,0,0-.05,5.42,10.51,10.51,0,0,0,2.34,2.33l-.2.07s-5.21,6.33-6.74,8.17-2.25,3.37-1.73,8.48c0,0,.4.82-.82,2.14s-7,7.36-8.07,8.18-3.17,1.53-2.25,3.57A9.87,9.87,0,0,0,6.63,61a6.57,6.57,0,0,1-.41,2.15c-.41,1-1.84,3.47.41,6.23a6.31,6.31,0,0,1-.51,1.94,6.16,6.16,0,0,0,.1,4.29c.62,1.84.11,1.74-.41,2.76a11.07,11.07,0,0,0-2.14,8.58C4.28,92.44,11.74,92,11.74,92H21.81c1.06,1.17,4.51,5.13,5.26,8.9.86,4.39,1.53,9.35,2.24,11s-5.21,6.49-5.21,6.49S8.11,134.53,6.63,136c0,0,1.84-.15,4.24,2s6.49,8.33,8.28,18.24,10.52,18.19,10.52,18.19,5.26,4.75,9.3,6c0,0,3.37-9.8,8.58-13.89s16.24-7,16.24-7,9.56-1.89,15.74-7.2,11.8-12.77,13.64-16.2a93.54,93.54,0,0,1,5-8S88.47,118.34,85.86,115.84ZM81.88,69c-7,7-5.86,17.79-6.44,17.17C71,81.41,79.58,69,81.26,68S81.88,69,81.88,69Zm-8.13,8.13S74.14,70,80.27,67C80.27,67,74.67,73.28,73.75,77.12Zm6.06-15.87c1.07-1.45,2.32-10.35,2.37-10.11C83.72,58.34,79.81,61.25,79.81,61.25ZM79.37,20c3.25-.23,4.32,3.29,4.32,3.29C82.51,21.39,79.25,20,79.37,20ZM83,61.87c.53-.31,1.22-3.07,1.22-3.07A2.39,2.39,0,0,1,83,61.87Zm1.45,1.68a2.79,2.79,0,0,1,.92-2.45,7.38,7.38,0,0,0,1.15-2.83,3.21,3.21,0,0,1-.61,3.29C85.4,62.25,84.48,63.55,84.48,63.55ZM84.89,49c.51-.56.39-3.83.46-3.68A3.39,3.39,0,0,1,84.89,49Zm1.43,2.3c.61-.92,1-7.91,1-7.77C88.77,48.41,86.32,51.27,86.32,51.27Zm.1-19.49c2.4,1.25,2.15,4.32,1.87,3.7S86.42,31.78,86.42,31.78Zm1.2,30.78c-1.07,1-1.53,3.68-1.53,3.68a4.68,4.68,0,0,1,1-4.68c.84-.61,1.76-4.6,1.76-4.6C89.85,58,88.7,61.56,87.62,62.56ZM89.16,53c.84-2.6-.45-13.57-.34-13.43C93.37,45.29,89.16,53,89.16,53ZM91,37.17c-1-3.93-4.76-8.85-4.65-8.79A9.84,9.84,0,0,1,91,37.17Zm-4.39-1.84a6.67,6.67,0,0,0-.82-1.66A1.31,1.31,0,0,1,86.63,35.33Zm-.85-12.11c-2.19-4.11-7.84-6.14-7.73-6.15C84.4,16.63,85.78,23.22,85.78,23.22ZM78,66.16a15,15,0,0,0-5.44,8.66S72.3,67.54,78,66.16Zm-6.13,4.67s-.15-5.44,4.29-6C76.13,64.78,72.68,67.61,71.84,70.83ZM60.17,50.91c3.32-3.78,5.51-2.6,5.51-2.6,4,1.43,3.73,4.08,3.73,4.08.56,6.39-1.63,9.71-2.35,10.73a22.06,22.06,0,0,1-6.89,5.67C56.08,71.14,53.32,70,53.32,70l-.22,0a3.87,3.87,0,0,0,0-.8A18.08,18.08,0,0,1,54,64a11.27,11.27,0,0,0-1.27,1.74c0-.8,0-1.41,0-1.68-.1-1.33.15-5.13.92-6.44a0,0,0,0,1,0,0c3.15-7.07,5.19-8.2,6.73-10,1.69-1.94,3.17-2.07,5.85-2.2a6.8,6.8,0,0,1,4.85,2.3,9,9,0,0,1,1.59,4c.15,1.27-.49,5-.9,5.11s.77-5.37-.87-7.72a6,6,0,0,0-5.21-2.71c-2.91-.1-4.11,1-6.18,3.78a19.18,19.18,0,0,0-2.3,4.4C57.71,54,60.17,50.91,60.17,50.91ZM43.51,34.72c6.08.82,9.05,6.23,9.05,6.23C48.93,37.53,43.29,34.69,43.51,34.72Zm7.31,7.92s-5.62-4.91-8.38-5.57A9.74,9.74,0,0,1,50.82,42.64Zm-6.9-10.73c6.75.41,10,7.05,10,7.05C52,35.69,43.77,31.9,43.92,31.91Zm.36-3.68c9.86.26,13.08,9.91,13.08,9.91C51,30.22,44.28,28.23,44.28,28.23Zm.51-2.5c10.22-1.33,15.94,11,15.94,11C53.12,26.75,44.79,25.73,44.79,25.73ZM67.62,15.36C72.91,14,73.06,18,73.06,18,71.84,15.66,67.62,15.36,67.62,15.36Zm6.44,48.5s-2.3,1.53-2.83,3.07C71.23,66.93,71,63.32,74.06,63.86ZM49,4.25c2.61,0,5.29,3.68,5.29,3.68,10.19-2.38,13.56,3.6,13.56,3.6,5.44.15,7,2.37,7.36,3.29s-1.15.77-1.15.77c-1.76-2.76-7.2-2.45-7.2-2.45C64.18,7.7,53.37,9.69,53.37,9.69c-2.6-4.29-6.16-4.13-6.2-4.37C46.86,3.48,49,4.25,49,4.25ZM63.26,13a8.68,8.68,0,0,0-7.21.08S60,9.15,63.26,13Zm-10.42-.15c-1.08-2.61-4.75-3.23-4.45-3.3C52.76,8.54,52.84,12.83,52.84,12.83Zm10.6,20.61A28.6,28.6,0,0,0,45,22.05C57.82,19.85,63.44,33.44,63.44,33.44ZM45.33,13.35c-2.28,2-3.25,3.49-5,4.89-1.19,1-1.55,1.2-1.55,1.2a6,6,0,0,1,.59-1.71,24.41,24.41,0,0,1,5.65-5,5.52,5.52,0,0,1,1.35-.52A14.9,14.9,0,0,1,45.33,13.35ZM35.14,18.27c0,.92-1.18,1.28-1.18,1.28s-.15-1.64-.15-1.79c-.05-3.32,4.33-7.38,5.72-8.12a3.14,3.14,0,0,1,1.85-.45s-1,1-1.15,1.19-3,2.82-4.14,4.25A4.78,4.78,0,0,0,35.14,18.27Zm1.38-1.48c.76-1.59,5.21-5.88,6.33-6.54a6.76,6.76,0,0,1,1.71-.79,12.74,12.74,0,0,1-2.12,2.67c-1.27,1.22-3.51,3.2-4.28,4.07-1.12,1.28-2,2.48-2,2.48A4.25,4.25,0,0,1,36.52,16.79ZM32.8,13a24.68,24.68,0,0,1,3.49-4.71,8.7,8.7,0,0,1,8.27-2.45s.73.19,1,.3a17.24,17.24,0,0,0-4.22.62c-3,.69-3.14,1-8.62,7.58C32.55,14.62,32,14.36,32.8,13Zm-.54,2.45c.23.58-1.22,1.34-.5,4.87a3.85,3.85,0,0,1-.53-4.6S32,14.9,32.26,15.47Zm-.15-7.16s.15,2.37-.54,3.37S29.16,13.56,28.7,15a11.87,11.87,0,0,0,.42,5.63,2.59,2.59,0,0,1,.07,1.24s-.55,0-1.14-.78c-1.19-1.6-1-5.13-.69-6a8.71,8.71,0,0,1,2.3-3.37C30.88,10.68,31,10.57,32.11,8.31ZM25,12.14A53.56,53.56,0,0,0,28.7,8c.7-1,1.23-2.95,1.38-2.64a6.41,6.41,0,0,1-.08,3c-.3,1.53-2.14,2.91-3.41,4.21a7,7,0,0,0-1.76,5.25,12.71,12.71,0,0,0,.69,3.41,3.58,3.58,0,0,1,0,2.34c-1.92-2.53-2-4-2-5.48S23.8,13.48,25,12.14ZM8,68.74a3.1,3.1,0,0,1-1-2.66c.15-1.12,1-.3,1-.3a10.62,10.62,0,0,0,1,1.58c.46.56,2.2.61,4,.77A3,3,0,0,1,15.47,70C12,69.71,8.57,69.3,8,68.74Zm9.6-1.64c-4.49-3.78-6.13-4.7-9.09-5.1,0,0-.92-1.79-.36-2.2a2.76,2.76,0,0,1,3,.56,5,5,0,0,0,3.27,1,2.38,2.38,0,0,0,2.19-2.25,4.69,4.69,0,0,0-3.37-5.26s-1.63,0-1,.92c0,0,1.84.82,2.2,1.59s.81,3.26-.05,3.67-.82-1.22-1.18-1.63-1.68-1.23-4.95-.87a1.94,1.94,0,0,0-1.54.66c-.51.72-1.63-.56-1.94-1.53s-.61-1.63.41-2.4,9-8.07,9.66-9.6a15.85,15.85,0,0,0,.71-5.77c-.1-1.64,3.27-3.58,4.44-5s3.58-4.75,4.76-6.08,2.19-3,4.85-4.44c.46-.25.52-.35.32-.36l.19-.1c4.29-2.56,4.65-1.48,4.65-1.48.92,1.07,6.74,5.67,6.74,5.67.05.25-.87.3-1.74.56s-.92,1.58.62,2,.71,1.23.71,1.23c-1.48-.06-4.54,1.35-2.5,2,3.73,1.17,1.68,2,1.68,2-3.37.15-3.88,2.56-3.88,2.56a70.31,70.31,0,0,0,7.2,2.8c5.88,2.1,4,6.13,4,6.13,9.45,0,9.6,2.46,9.6,2.46L47,47.79,46.53,50c9.86.36,8.94,2,8.94,2L46,51.32l-.36,2.09.66.05c6.59-.2,6.9,1.59,6.9,1.59l-7.77-.56-.3,2.09a15,15,0,0,1-1.43,4.19,24.53,24.53,0,0,1-1.74,3A15.55,15.55,0,0,0,43.29,60a3.52,3.52,0,0,0-.48-2.47v0s-2.35,8-6.44,11.65a7.46,7.46,0,0,0,.72-5.62s-2.66,4.8-6,6A14,14,0,0,1,17.56,67.1ZM77,136.63S72.73,140,64.3,143s-14.09,4.39-19.76,8.12-12,7.72-13.49,13.28c0,0-1.64-.15-3.07-5.77S23,141.12,18.64,136c0,0-.36-3.21,4.8-9.86s8-9.91,8-9.91,1.63,10.43,2.4,11.65,1.48,1.64,1.43-.66A86.49,86.49,0,0,0,33.14,114c-.66-1.79-1.12-2.2-1.12-3.17s-.91-14.32-5.63-19.65A26.47,26.47,0,0,1,30,90.81c2.55,0,11.34,0,12-.21s4.7-.71,7.56-6.43,2.86-7,3-8.18c0-.41.07-1.95.1-3.8l0,0c9.09,2.4,16-8.53,16-8.53s-.72,4.75-1,10.12S69.41,82,69.41,82c1.23,2.24,2.27,4,3.15,5.51-.16,3.23-.35,8.36-.18,12,.25,5.72,5,13.33,5,13.33S84,123.29,87.14,126.1C87.14,126.1,84.94,131.06,77,136.63Z"/>
        </g>
      </g>
    </g>
  </g>
</svg>
