<?xml version="1.0" encoding="utf-8"?>
<!-- Generator: Adobe Illustrator 24.2.1, SVG Export Plug-In . SVG Version: 6.00 Build 0)  -->
<svg version="1.1" id="Layer_1" xmlns="http://www.w3.org/2000/svg" xmlns:xlink="http://www.w3.org/1999/xlink" x="0px" y="0px"
	 viewBox="0 0 320 182.4" style="enable-background:new 0 0 320 182.4;" xml:space="preserve">
<style type="text/css">
	.st0{enable-background:new    ;}
	.st1{fill:#FFFFFF;}
	.st2{fill:none;stroke:url(#SVGID_1_);stroke-width:1.97;stroke-miterlimit:10;}
	.st3{fill:none;stroke:url(#SVGID_2_);stroke-width:1.97;stroke-miterlimit:10;}
	.st4{fill:none;stroke:url(#SVGID_3_);stroke-width:1.97;stroke-miterlimit:10;}
	.st5{fill:none;stroke:url(#SVGID_4_);stroke-width:1.97;stroke-miterlimit:10;}
	.st6{fill:none;stroke:url(#SVGID_5_);stroke-width:1.97;stroke-miterlimit:10;}
	.st7{fill:#C1301D;}
	.st8{fill:url(#SVGID_6_);}
	.st9{fill:#9B8D60;}
	.st10{fill:none;}
</style>
<g id="Layer_2_1_">
	<g id="Layer_1-2">
		<g>
			<g class="st0">
				<path class="st1" d="M22.1,117.9H4V71.3h16c7.6,0,14.3,4.7,14.3,12.3c0,2.8-1.5,6.3-4.1,7.7c4.3,1.3,8.5,6.1,8.5,12
					C38.8,112.4,31.3,117.9,22.1,117.9z M18.2,79.7h-3.5v9.6h3.5c2.8,0,5.4-1.4,5.4-4.7C23.6,81.1,21,79.7,18.2,79.7z M20.1,97.4
					h-5.4v12.2h5.4c3.6,0,7.3-1.8,7.3-6.1C27.4,99.4,23.8,97.4,20.1,97.4z"/>
			</g>
			<g class="st0">
				<path class="st1" d="M75.4,117.9l-4.1-10.5H55.8l-4.1,10.5H40.5l19.2-46.9H68l19.2,46.9H75.4z M65.1,89.9
					c-0.5-1.2-1.1-2.8-1.5-4.3h-0.2c-0.4,1.5-0.9,3.1-1.4,4.3l-3.3,8.6h9.6L65.1,89.9z"/>
				<path class="st1" d="M92,117.9V71.3h11.9v37.3h18.4v9.3H92z"/>
			</g>
			<g class="st0">
				<path class="st1" d="M126.8,117.9V71.3h11.9v37.3H157v9.3H126.8z"/>
			</g>
			<g class="st0">
				<path class="st1" d="M194.1,117.9l-4.1-10.5h-15.6l-4.1,10.5h-11.2l19.2-46.9h8.2l19.2,46.9H194.1z M183.7,89.9
					c-0.5-1.2-1.1-2.8-1.5-4.3h-0.2c-0.4,1.5-0.9,3.1-1.4,4.3l-3.3,8.6h9.6L183.7,89.9z"/>
			</g>
			<g>
				
					<linearGradient id="SVGID_1_" gradientUnits="userSpaceOnUse" x1="3.99" y1="89.425" x2="205.86" y2="89.425" gradientTransform="matrix(1 0 0 -1 0 184)">
					<stop  offset="0" style="stop-color:#F8EDC0"/>
					<stop  offset="0.49" style="stop-color:#9A845D"/>
					<stop  offset="0.77" style="stop-color:#F1DF97"/>
					<stop  offset="0.85" style="stop-color:#D8CB95"/>
					<stop  offset="0.94" style="stop-color:#C6BC94"/>
					<stop  offset="1" style="stop-color:#BFB793"/>
				</linearGradient>
				<path class="st2" d="M22.1,117.9H4V71.3h16c7.6,0,14.3,4.7,14.3,12.3c0,2.8-1.5,6.3-4.1,7.7c5.1,1.8,8.5,6.6,8.5,12
					C38.8,112.4,31.3,117.9,22.1,117.9z M18.2,79.7h-3.5v9.6h3.5c2.8,0,5.4-1.4,5.4-4.8S21,79.7,18.2,79.7z M20.1,97.4h-5.4v12.2
					h5.4c3.6,0,7.3-1.8,7.3-6.1S23.8,97.4,20.1,97.4z"/>
				
					<linearGradient id="SVGID_2_" gradientUnits="userSpaceOnUse" x1="3.99" y1="89.61" x2="205.86" y2="89.61" gradientTransform="matrix(1 0 0 -1 0 184)">
					<stop  offset="0" style="stop-color:#F8EDC0"/>
					<stop  offset="0.49" style="stop-color:#9A845D"/>
					<stop  offset="0.77" style="stop-color:#F1DF97"/>
					<stop  offset="0.85" style="stop-color:#D8CB95"/>
					<stop  offset="0.94" style="stop-color:#C6BC94"/>
					<stop  offset="1" style="stop-color:#BFB793"/>
				</linearGradient>
				<path class="st3" d="M75.4,117.9l-4.1-10.5H55.8l-4.1,10.5H40.5l19.2-46.9H68l19.2,46.9H75.4z M65.1,89.9
					c-0.6-1.4-1-2.8-1.5-4.3h-0.2c-0.4,1.5-0.8,2.9-1.4,4.3l-3.3,8.6h9.6L65.1,89.9z"/>
				
					<linearGradient id="SVGID_3_" gradientUnits="userSpaceOnUse" x1="3.99" y1="89.425" x2="205.86" y2="89.425" gradientTransform="matrix(1 0 0 -1 0 184)">
					<stop  offset="0" style="stop-color:#F8EDC0"/>
					<stop  offset="0.49" style="stop-color:#9A845D"/>
					<stop  offset="0.77" style="stop-color:#F1DF97"/>
					<stop  offset="0.85" style="stop-color:#D8CB95"/>
					<stop  offset="0.94" style="stop-color:#C6BC94"/>
					<stop  offset="1" style="stop-color:#BFB793"/>
				</linearGradient>
				<path class="st4" d="M92,117.9V71.3h11.9v37.3h18.4v9.3H92z"/>
				
					<linearGradient id="SVGID_4_" gradientUnits="userSpaceOnUse" x1="3.99" y1="89.425" x2="205.86" y2="89.425" gradientTransform="matrix(1 0 0 -1 0 184)">
					<stop  offset="0" style="stop-color:#F8EDC0"/>
					<stop  offset="0.49" style="stop-color:#9A845D"/>
					<stop  offset="0.77" style="stop-color:#F1DF97"/>
					<stop  offset="0.85" style="stop-color:#D8CB95"/>
					<stop  offset="0.94" style="stop-color:#C6BC94"/>
					<stop  offset="1" style="stop-color:#BFB793"/>
				</linearGradient>
				<path class="st5" d="M126.8,117.9V71.3h11.9v37.3H157v9.3H126.8z"/>
				
					<linearGradient id="SVGID_5_" gradientUnits="userSpaceOnUse" x1="3.99" y1="89.61" x2="205.86" y2="89.61" gradientTransform="matrix(1 0 0 -1 0 184)">
					<stop  offset="0" style="stop-color:#F8EDC0"/>
					<stop  offset="0.49" style="stop-color:#9A845D"/>
					<stop  offset="0.77" style="stop-color:#F1DF97"/>
					<stop  offset="0.85" style="stop-color:#D8CB95"/>
					<stop  offset="0.94" style="stop-color:#C6BC94"/>
					<stop  offset="1" style="stop-color:#BFB793"/>
				</linearGradient>
				<path class="st6" d="M194.1,117.9l-4.1-10.5h-15.6l-4.1,10.5h-11.2l19.2-46.9h8.2l19.2,46.9H194.1z M183.7,89.9
					c-0.6-1.4-1.1-2.8-1.5-4.3h-0.1c-0.4,1.5-0.8,2.9-1.4,4.3l-3.3,8.6h9.6L183.7,89.9z"/>
			</g>
		</g>
	</g>
	<g id="manLogo">
		<g>
			<g>
				<path class="st7" d="M295,91.5c1.6,2.2,2,2,2,2s-0.3-10.7,0.8-14.1s5.6-8.7,6-9.9s1.1-0.7,1.1-0.7c0.2,0.7,0.7,1.4,1.3,1.7
					c1-4.8,3.8-9.1,5.6-13.7s0.4-12.9,0.4-12.9c0.4,0.7,1,1.3,1.7,1.5c-0.7-1.7-1.1-3.6-1-5.4c0.2-3.4-0.2-6.8-1.3-10
					c-0.8-2-2.2-3.8-3.8-5.2c2.9,0.3,2.1-0.7,2.1-0.7c-2.8-7.8-12.4-10.9-12.4-10.9c-5.3-4.8-8.9-4.2-9.3-4.5
					c-1.8-1.3-3.8-2.3-5.9-3.1c-1.8-0.5-8.7-0.6-8.7-0.6c-1.6-1.8-3.7-3-6.1-3.2c-1.6-0.1-3.1,0.6-4,1.9c-0.9,1.1-0.8,1-1.5,0.3
					s-1.4-0.9-3.8-0.8s-2.7,1.5-3.6,2.4s-1.3-0.6-1.8-1.1S251,3,247.4,4.3s-4,4.5-4.4,6.1s-2.4,5-3.4,7c-0.8,1.7-0.8,3.7,0,5.4
					c0.7,0.9,1.4,1.7,2.3,2.3l-0.2,0.1c0,0-5.2,6.3-6.8,8.2s-2.2,3.4-1.7,8.5c0,0,0.4,0.8-0.8,2.1s-7.1,7.4-8.1,8.2
					s-3.2,1.5-2.3,3.6c0.8,2.2,2.3,4.1,4.3,5.2c0,0.7-0.1,1.5-0.4,2.2c-0.4,1-1.8,3.5,0.4,6.2c-0.1,0.7-0.2,1.3-0.5,1.9
					c-0.5,1.4-0.4,2.9,0.1,4.3c0.6,1.8,0.1,1.7-0.4,2.8c-1.9,2.4-2.7,5.5-2.1,8.6c0.6,5.5,8.1,5.1,8.1,5.1h10.1
					c1.1,1.2,4.5,5.1,5.3,8.9c0.9,4.4,1.5,9.3,2.3,11s-5.2,6.5-5.2,6.5s-16,16.1-17.5,17.6c0,0,1.8-0.1,4.2,2s6.5,8.3,8.3,18.2
					s10.5,18.2,10.5,18.2s5.3,4.8,9.3,6c0,0,3.4-9.8,8.6-13.9s16.3-7,16.3-7s9.5-1.9,15.7-7.2s11.8-12.8,13.6-16.2s5.1-8,5.1-8
					s-9.8-9.8-12.4-12.3s-10.9-10.8-11.1-13.5C294.5,100.5,295,91.5,295,91.5z"/>
				
					<linearGradient id="SVGID_6_" gradientUnits="userSpaceOnUse" x1="219.7943" y1="92.8349" x2="320.007" y2="92.8349" gradientTransform="matrix(1 0 0 -1 0 184)">
					<stop  offset="0" style="stop-color:#675E4C"/>
					<stop  offset="1" style="stop-color:#C2AF75"/>
				</linearGradient>
				<path class="st8" d="M267,2h0.5c2.4,0.2,4.6,1.4,6.1,3.2c0,0,6.8,0,8.7,0.6c2.1,0.8,4,1.8,5.9,3.1c0.4,0.3,4-0.3,9.3,4.5
					c0,0,9.7,3.1,12.4,10.9c0,0,0.6,0.8-1.2,0.8c-0.2,0-0.5,0-0.9,0c1.7,1.4,3,3.2,3.8,5.2c1.1,3.2,1.6,6.6,1.3,10
					c-0.1,1.9,0.3,3.7,1,5.4c-0.7-0.3-1.3-0.8-1.7-1.5c0,0,1.4,8.3-0.4,12.9s-4.6,8.9-5.6,13.7c-0.7-0.4-1.2-1-1.3-1.7
					c-0.1-0.1-0.2-0.1-0.3-0.1c-0.2,0-0.5,0.2-0.8,0.8c-0.5,1.2-4.9,6.4-6,9.9S297,93.6,297,93.6l0,0c-0.1,0-0.6-0.1-2-2.1
					c0,0-0.5,9-0.4,10.8c0.1,2.7,8.5,11,11.1,13.5s12.3,12.3,12.3,12.3s-3.2,4.5-5.1,8s-7.5,10.9-13.6,16.2s-15.7,7.2-15.7,7.2
					s-11,2.9-16.3,7s-8.6,13.9-8.6,13.9c-4-1.2-9.3-6-9.3-6s-8.7-8.3-10.5-18.2s-5.9-16.1-8.3-18.2c-1.1-1.1-2.6-1.9-4.1-2h-0.1
					c1.5-1.4,17.5-17.6,17.5-17.6s5.9-4.8,5.2-6.5s-1.4-6.6-2.3-11c-0.8-3.8-4.2-7.7-5.3-8.9h-10.4c-1.5,0-7.2-0.3-7.7-5.1
					c-0.5-3,0.3-6.1,2.1-8.6c0.5-1,1-0.9,0.4-2.8c-0.5-1.4-0.6-2.9-0.1-4.3c0.3-0.6,0.4-1.3,0.5-1.9c-2.2-2.8-0.8-5.2-0.4-6.2
					c0.3-0.7,0.4-1.4,0.4-2.2c-2-1.2-3.6-3-4.4-5.2c-0.9-2,1.2-2.8,2.3-3.6s6.8-6.8,8.1-8.2s0.8-2.1,0.8-2.1
					c-0.5-5.1,0.2-6.6,1.7-8.5s6.8-8.2,6.8-8.2l0.2-0.1c-0.9-0.7-1.7-1.4-2.3-2.3c-0.8-1.7-0.8-3.7,0-5.4c1.1-2,3-5.4,3.4-7
					s0.8-4.8,4.4-6.1c0.9-0.3,1.9-0.5,2.8-0.6c1-0.1,1.9,0.3,2.6,1c0.4,0.4,0.7,1.4,1.3,1.4c0.2,0,0.4-0.1,0.5-0.2
					c0.9-0.8,1.2-2.3,3.6-2.3h0.6c1.9,0,2.5,0.2,3.1,0.8c0.3,0.3,0.5,0.5,0.6,0.5s0.4-0.3,0.8-0.8C264.2,2.8,265.5,2,267,2 M267,0
					L267,0c-1.8,0-3.5,0.8-4.6,2.2c-1.1-0.5-2.3-0.8-3.5-0.7h-0.7c-1.5-0.1-3,0.6-4,1.8c-1-1.1-2.5-1.6-4-1.6
					c-1.2,0-2.4,0.3-3.5,0.7c-4.3,1.5-5.2,5.3-5.6,7c0,0.2-0.1,0.3-0.1,0.5c-0.7,1.8-1.5,3.5-2.4,5.2l-0.8,1.5c-1.2,2.3-1.2,5,0,7.3
					c0.3,0.6,0.8,1.1,1.2,1.5l-5.6,6.8c-1.9,2.3-2.8,4.4-2.2,10c0,0.1,0,0.1,0,0.2c-0.1,0.2-0.2,0.3-0.3,0.4c-1.4,1.5-7,7.3-7.9,8
					l-0.5,0.4c-1,0.7-3.7,2.4-2.3,5.6c0.9,2.1,2.3,4,4.1,5.3c0,0.1-0.1,0.2-0.1,0.4c0,0.1-0.1,0.2-0.1,0.3c-1.2,2.3-1.1,5,0.3,7.2
					c0,0.2-0.1,0.4-0.2,0.6c-0.7,1.9-0.7,3.9,0,5.8c0.1,0.2,0.1,0.3,0.1,0.5c-0.2,0.2-0.3,0.5-0.4,0.8c0,0.1-0.2,0.3-0.3,0.4
					c-0.9,1.3-2.7,4-2.1,9.3c0.6,5.1,5.4,6.9,9.7,6.9h9.5c2.3,2.7,3.8,5.3,4.2,7.3c0.3,1.4,0.5,2.9,0.8,4.3c0.3,2.3,0.8,4.5,1.4,6.7
					c-1.3,1.7-2.8,3.3-4.5,4.6l-0.2,0.1c-0.2,0.2-16,16.2-17.4,17.5c-0.7,0.6-0.9,1.5-0.5,2.4c0.3,0.7,1,1.1,1.7,1.1h0.3
					c1.1,0.2,2,0.7,2.8,1.5c1.9,1.7,5.9,7.4,7.6,17.1c1.9,10.4,10.7,18.9,11.1,19.3s5.7,5.1,10.1,6.4c0.2,0.1,0.4,0.1,0.6,0.1
					c0.9,0,1.6-0.5,1.9-1.4c0-0.1,3.3-9.3,7.9-13s14.6-6.4,15.5-6.6c1-0.2,10.3-2.2,16.6-7.6c5.5-4.8,10.3-10.5,14.1-16.8
					c1.8-3.3,4.9-7.7,4.9-7.8c0.6-0.8,0.5-1.9-0.2-2.6c-0.4-0.4-9.8-9.8-12.4-12.3c-6.5-6.2-10.2-10.9-10.5-12.2
					c0-0.9,0.1-4,0.2-6.7h0.2c0.2,0,0.4,0,0.6-0.1c0.9-0.3,1.5-1.1,1.4-2c-0.1-4,0-11.2,0.7-13.4c0.6-1.9,2.7-4.9,4.1-6.8
					c0.3-0.5,0.6-0.9,0.8-1.2c0.2,0.2,0.4,0.3,0.7,0.4c1,0.5,2.2,0.1,2.7-0.9c0.1-0.2,0.1-0.3,0.2-0.5c0.8-3,1.9-5.9,3.4-8.6
					c0.7-1.5,1.5-3.1,2.2-4.8c1.2-3,1.2-7.3,1-10.3c0.3-0.1,0.6-0.3,0.8-0.6c0.5-0.6,0.6-1.5,0.3-2.2c-0.6-1.4-0.8-2.9-0.8-4.3
					c0.3-3.7-0.2-7.4-1.5-10.9c-0.5-1.2-1.2-2.4-2-3.4c0.6-0.7,0.7-1.8,0.2-2.6c-2.8-7.6-11.2-11-13.2-11.8c-4.5-4-8.1-4.4-9.5-4.6
					l0,0c-1.9-1.3-4-2.4-6.2-3.2c-1.7-0.5-6.3-0.6-8.4-0.6c-1.8-1.8-4.2-2.9-6.8-3.2C267.5,0,267.3,0,267,0L267,0z"/>
			</g>
			<path class="st9" d="M296.2,88.3c0,0-8.7-7.5-7-15.9s-0.5-8.7,2-12.4s4.9-25.6,4.9-25.6l-14.1,3.2l-3.4,7.8l-8.3-1.1
				c0,0-6-4.9-7.7-5.5s-0.3-7.4-0.3-7.4l2.3-7.8l-5.2-2.8c0,0-6-0.9-7.7-0.1s-8,5.2-8,5.2l-2.6-6.1c0,0,2.4-10,4.1-11.2
				c1.5-1.3,2.9-2.6,4.1-4.1l3.1,2.4l1.4,1.4l3.2-3.2l3.1-0.3c0,0,3.8,1.1,4.4,0.6s2.3-2.2,3.2-2c2.4,0.3,4.5,1.6,5.8,3.5
				c0,0,11.6-1.4,14.4,3.2c0,0,8.6,3.1,9.2,4.8s3.5,0.8,3.5,0.8l6,6.3l-0.6,2.6l4,6.4L312,36l-0.3,4.6l-0.3,11.2l-1.1,6.6l-4.3,9.7
				l-2.6,0.5l-3.5,4.8l-3.2,6.4L296.2,88.3z"/>
			<g>
				<path class="st10" d="M273.4,57.6c-0.8,1.3-1,5.1-0.9,6.4c0,0.3,0,0.9,0,1.7c0.4-0.6,0.8-1.2,1.3-1.7c-0.5,1.7-0.8,3.4-0.9,5.1
					c0,0.3,0,0.5,0,0.8h0.2c0,0,2.8,1.2,6.9-1.2c2.7-1.4,5-3.3,6.9-5.7c0.7-1,2.9-4.3,2.4-10.7c0,0,0.3-2.7-3.7-4.1
					c0,0-2.2-1.2-5.5,2.6c0,0-2.5,3.1-3,3.6c0.6-1.6,1.3-3,2.3-4.4c2.1-2.8,3.3-3.9,6.2-3.8s4.4,1.3,5.2,2.7s1.7,7.4,2.1,7.3
					s-0.2-3.4-0.3-4.7c-0.2-1.4-0.7-2.8-1.6-4c-1.2-1.4-3-2.2-4.9-2.3c-2.7,0.1-4.2,0.3-5.9,2.2C278.6,49.3,274.2,56.4,273.4,57.6
					L273.4,57.6z M281.1,66.6c-0.8,0.3-1.6-0.4-0.4-1.7c0.8-0.8,1.9-1.3,3.1-1.2C282.7,66,281.9,66.3,281.1,66.6L281.1,66.6z
					 M285,51.6c2.1,0,2.8,3,2.5,4.9s-1.7,1.3-2,0.4s0.4-2.5-0.6-3.9S285,51.6,285,51.6z M276.7,62.2c0.3-0.2,0.6-0.5,0.9-0.8
					c0.8-1.1,0.1-3.4,2.4-2.9c0,0-1.9-6.1,2.6-8.6c0,0,1.6-1,0.9,0.8c0,0-1.6,1.2-1.9,2.3c-0.2,1.1,0.4,2.2,1.4,2.8
					c0.8,0.5,4.7,4.7,0.5,6.8c0,0-1.1,0.3-3.8,1.3c0,0-1.2,0.8-1.8,1.2S274.4,63.9,276.7,62.2L276.7,62.2z"/>
				<path class="st10" d="M297.2,112.9c0,0-4.8-7.6-5-13.3c-0.2-3.7,0-8.8,0.2-12c-0.9-1.5-1.9-3.3-3.1-5.5c0,0-1.9-2.9-1.6-8.2
					s1-10.1,1-10.1s-7,10.9-16,8.5h0c0,1.8-0.1,3.4-0.1,3.8c-0.1,1.1-0.1,2.4-3,8.2s-6.9,6.2-7.6,6.4s-9.5,0.2-12.1,0.2
					c-1.2,0-2.4,0.2-3.6,0.4c4.7,5.3,5.6,18.7,5.6,19.7s0.5,1.4,1.1,3.2c1,4.3,1.7,8.8,2.1,13.2c0,2.3-0.7,1.9-1.4,0.7
					s-2.4-11.7-2.4-11.7s-2.8,3.3-8,9.9c-5.2,6.6-4.8,9.9-4.8,9.9c4.4,5.1,7.9,17,9.4,22.6s3.1,5.8,3.1,5.8
					c1.5-5.6,7.8-9.6,13.5-13.3s11.3-5.2,19.8-8.1s12.7-6.3,12.7-6.3c8-5.6,10.2-10.5,10.2-10.5
					C303.8,123.3,297.2,112.9,297.2,112.9z M253.5,145.9c-0.7,1.9-1.9,1.2-2.3,0.3s0.3-2.9,1-4.9s1.8-7.9,1.8-7.7
					C255.2,136.6,254.3,144,253.5,145.9L253.5,145.9z M262,106.2c-0.7,1-0.9,3.4-1.3,5.5s-1.2,0.5-1.2,0.5c-0.2-5.8,2.5-8.1,2.5-8.1
					C263,104.2,262.7,105.2,262,106.2z M283.5,75c0.4-0.7,0.6-1.8,1.3-1.2c0.3,0.3,0,1.5-0.4,2.3s-2.5,7.5-2.5,7.5
					C281.9,78.3,283.2,75.6,283.5,75z M277.1,85.7c5.3,7.8,3.7,24.2,3.3,25.5c-0.6,2-1.9,6.1-1.9,6.1s-0.2-14.9-0.6-21.2
					s-2-8.3-2-9.8S277.1,85.7,277.1,85.7z M275.6,135.4c-2.9,0.6-5.9,1.4-6.7,1s-0.9-1.4,0.3-2.2s9.5-1.1,9.5-1.1
					c9.3,0,14.1,0.3,15.8,0.5h0.1h0.2h0.2l0,0l-0.5-0.1C288.1,133.9,281.8,134.5,275.6,135.4z"/>
				<path d="M247.1,41.9c1.4,0.7,2.7,1.5,4,2.3c1.1,0.7,2.2,1.4,3.3,2c0.7,0.3,1.1-0.9,0.4-1.7s-4.9-5-6.2-6.3
					c-0.2-0.2-0.5-0.4-0.9-0.5c-3.3-0.7-6.7-0.9-10.1-0.7c-0.1,0-1.7,1-0.9,3.9c0.2,0.8,0.9,2,1.7,1.9c1.2-0.1,2.3-0.3,3.4-0.6
					C243.6,42.1,245.3,42,247.1,41.9z"/>
				<path d="M241.9,47c1.4,0.7,3,0.8,4.4,0.3c0.8-0.3,1.8,0.1,2.3,0.2s1.8,0.4,2,0.2s0-0.7-0.4-1.1s-4.2-2-4.8-2.3
					c-0.3-0.2-2-1.3-3.2-0.6s-2.1,0.9-2.1,2.6c0,1.1,0.4,2.1,1,3c0.5,1.3,0.5,2.8,0,4.1c-0.2,0.4-0.1,0.8,0.2,1.1
					c0,0,1.4-2.9,0.9-4.6c-0.2-0.8-0.6-1.5-1.1-2.2c-0.1-0.4-0.1-0.9,0-1.3C241.3,46.7,241.6,46.9,241.9,47z"/>
				<path d="M277.9,64.9c0.6-0.5,1.8-1.2,1.8-1.2c2.7-1,3.8-1.3,3.8-1.3c4.2-2.1,0.3-6.3-0.5-6.8c-1-0.6-1.5-1.7-1.3-2.8
					c0.3-1.1,1.9-2.3,1.9-2.3c0.7-1.8-0.9-0.8-0.9-0.8c-4.5,2.5-2.6,8.6-2.6,8.6c-2.3-0.5-1.6,1.8-2.4,2.9c-0.3,0.3-0.6,0.6-0.9,0.8
					C274.4,63.9,277.3,65.4,277.9,64.9z"/>
				<path d="M285.5,56.9c0.3,0.9,1.7,1.5,2-0.4s-0.4-4.9-2.5-4.9c0,0-1.1,0-0.1,1.5S285.2,56,285.5,56.9z"/>
				<path d="M280.7,64.9c-1.3,1.3-0.5,2,0.4,1.7s1.6-0.7,2.7-2.8C282.6,63.7,281.5,64.1,280.7,64.9z"/>
				<path d="M278.5,117.3c0,0,1.3-4,1.9-6.1c0.4-1.3,1.9-17.7-3.3-25.5c0,0-1.3-0.9-1.2,0.6s1.6,3.5,2,9.8S278.5,117.3,278.5,117.3z
					"/>
				<path d="M262,104c0,0-2.7,2.3-2.5,8.1c0,0,0.8,1.6,1.2-0.5s0.6-4.5,1.3-5.5S263,104.2,262,104z"/>
				<path d="M252.3,141.2c-0.7,2-1.3,3.9-1,4.9s1.5,1.6,2.3-0.3s1.7-9.2,0.6-12.3C254,133.4,253,139.2,252.3,141.2z"/>
				<path d="M294.8,133.7h-0.2h-0.1l0.5,0.1L294.8,133.7z"/>
				<path d="M269.2,134.2c-1.2,0.9-1.1,1.8-0.3,2.2s3.8-0.4,6.7-1c6.3-0.9,12.6-1.5,18.9-1.8c-1.7-0.1-6.4-0.5-15.8-0.5
					C278.7,133.1,270.4,133.4,269.2,134.2z"/>
				<path d="M295,133.7"/>
				<path d="M284.8,73.7c-0.7-0.6-0.9,0.6-1.3,1.2s-1.6,3.4-1.6,8.5c0,0,2.1-6.7,2.5-7.5S285.1,74,284.8,73.7z"/>
				<path d="M305.6,115.8c-2.6-2.5-10.3-10.5-10.6-13.2c-0.2-1.8-0.2-7.4-0.1-11.2c1.6,2.2,2,2,2,2s-0.3-10.7,0.8-14.1
					s5.6-8.7,6-9.9s1.1-0.7,1.1-0.7c0.2,0.7,0.7,1.4,1.3,1.7c1-4.8,3.8-9.1,5.6-13.7s0.4-12.9,0.4-12.9c0.4,0.7,1,1.3,1.8,1.5
					c-0.7-1.7-1.1-3.6-1-5.4c0.2-3.4-0.2-6.8-1.3-10c-0.8-2-2.2-3.8-3.8-5.2c2.9,0.3,2.1-0.7,2.1-0.7c-2.8-7.8-12.4-10.9-12.4-10.9
					c-5.3-4.8-8.9-4.2-9.3-4.5c-1.8-1.3-3.8-2.3-5.9-3.1c-1.8-0.5-8.7-0.6-8.7-0.6c-1.6-1.8-3.7-3-6.1-3.2c-1.6-0.1-3.1,0.6-4,1.9
					c-0.9,1.1-0.8,1-1.5,0.3s-1.4-0.9-3.8-0.8s-2.7,1.5-3.6,2.4s-1.3-0.6-1.8-1.1S251,3,247.4,4.3s-4,4.5-4.4,6.1s-2.4,5-3.4,7
					c-0.8,1.7-0.8,3.7,0,5.4c0.7,0.9,1.4,1.7,2.3,2.3l-0.2,0.1c0,0-5.2,6.3-6.8,8.2s-2.2,3.4-1.7,8.5c0,0,0.4,0.8-0.8,2.1
					s-7.1,7.4-8.1,8.2s-3.2,1.5-2.3,3.6c0.8,2.2,2.3,4.1,4.3,5.2c0,0.7-0.1,1.5-0.4,2.2c-0.4,1-1.8,3.5,0.4,6.2
					c-0.1,0.7-0.2,1.3-0.5,1.9c-0.5,1.4-0.4,2.9,0.1,4.3c0.6,1.8,0.1,1.7-0.4,2.8c-1.9,2.4-2.7,5.5-2.1,8.6c0.6,5.5,8.1,5.1,8.1,5.1
					h10.1c1.1,1.2,4.5,5.1,5.3,8.9c0.9,4.4,1.5,9.3,2.3,11s-5.2,6.5-5.2,6.5s-16,16.1-17.5,17.6c0,0,1.8-0.1,4.2,2s6.5,8.3,8.3,18.2
					s10.5,18.2,10.5,18.2s5.3,4.8,9.3,6c0,0,3.4-9.8,8.6-13.9s16.3-7,16.3-7s9.5-1.9,15.7-7.2s11.8-12.8,13.6-16.2s5.1-8,5.1-8
					S308.3,118.3,305.6,115.8z M301.6,69c-7,7-5.9,17.8-6.4,17.2c-4.4-4.7,4.2-17.2,5.8-18.2S301.7,69,301.6,69L301.6,69z
					 M293.5,77.1c0,0,0.4-7.1,6.5-10.1C300,67,294.5,73.3,293.5,77.1L293.5,77.1z M299.5,61.2c1.1-1.5,2.3-10.4,2.4-10.1
					C303.5,58.3,299.6,61.3,299.5,61.2L299.5,61.2z M299.2,20c3.2-0.2,4.3,3.3,4.3,3.3C302.3,21.4,299,20,299.2,20z M302.8,61.9
					c0.5-0.3,1.2-3.1,1.2-3.1C304.5,60,304,61.3,302.8,61.9L302.8,61.9z M304.3,63.6c-0.1-0.9,0.2-1.8,0.9-2.5
					c0.6-0.9,1-1.8,1.1-2.8c0.4,1.1,0.2,2.4-0.6,3.3C305.2,62.3,304.3,63.5,304.3,63.6L304.3,63.6z M304.7,49
					c0.5-0.6,0.4-3.8,0.5-3.7C305.7,46.5,305.5,48,304.7,49z M306.1,51.3c0.6-0.9,1-7.9,1-7.8C308.5,48.4,306.1,51.3,306.1,51.3
					L306.1,51.3z M306.2,31.8c2.4,1.2,2.1,4.3,1.9,3.7S306.2,31.8,306.2,31.8L306.2,31.8z M307.4,62.6c-1.1,1-1.5,3.7-1.5,3.7
					c-0.5-1.6-0.2-3.4,1-4.7c0.8-0.6,1.8-4.6,1.8-4.6C309.6,58,308.5,61.6,307.4,62.6L307.4,62.6z M308.9,53
					c0.8-2.6-0.5-13.6-0.3-13.4C313.1,45.3,308.9,53,308.9,53z M310.8,37.2c-1-3.9-4.8-8.9-4.6-8.8
					C309.2,30.3,310.9,33.6,310.8,37.2L310.8,37.2z M306.4,35.4c-0.2-0.6-0.5-1.1-0.8-1.7C306.2,34,306.6,34.7,306.4,35.4
					L306.4,35.4z M305.6,23.3c-2.2-4.1-7.9-6.1-7.7-6.1C304.2,16.6,305.6,23.2,305.6,23.3L305.6,23.3z M297.7,66.2
					c-2.8,2.2-4.7,5.2-5.4,8.7C292.3,74.9,292.1,67.5,297.7,66.2L297.7,66.2z M291.6,70.9c0,0-0.1-5.4,4.3-6
					C295.9,64.8,292.5,67.6,291.6,70.9L291.6,70.9z M280,50.9c3.3-3.8,5.5-2.6,5.5-2.6c4,1.4,3.7,4.1,3.7,4.1
					c0.6,6.4-1.6,9.7-2.4,10.7c-1.9,2.3-4.2,4.3-6.9,5.7c-4.1,2.3-6.9,1.2-6.9,1.2h-0.2c0-0.3,0-0.5,0-0.8c0-1.7,0.3-3.5,0.9-5.1
					c-0.5,0.5-0.9,1.1-1.3,1.7c0-0.8,0-1.4,0-1.7c-0.1-1.3,0.1-5.1,0.9-6.4l0,0c3.2-7.1,5.2-8.2,6.7-10c1.7-1.9,3.2-2.1,5.9-2.2
					c1.9,0.1,3.6,0.9,4.9,2.3c0.8,1.2,1.4,2.6,1.6,4c0.1,1.3-0.5,5-0.9,5.1s0.8-5.4-0.9-7.7c-1.1-1.7-3.1-2.8-5.2-2.7
					c-2.9-0.1-4.1,1-6.2,3.8c-1,1.4-1.7,2.8-2.3,4.4C277.5,54,280,50.9,280,50.9z M263.3,34.7c6.1,0.8,9,6.2,9,6.2
					C268.7,37.5,263.1,34.7,263.3,34.7z M270.6,42.6c0,0-5.6-4.9-8.4-5.6C265.8,37.2,269.1,39.4,270.6,42.6L270.6,42.6z M263.7,31.9
					c6.8,0.4,10,7,10,7C271.8,35.7,263.5,31.9,263.7,31.9L263.7,31.9z M264.1,28.2c9.9,0.3,13.1,9.9,13.1,9.9
					C270.8,30.2,264.1,28.2,264.1,28.2L264.1,28.2z M264.6,25.7c10.2-1.3,15.9,11,15.9,11C272.9,26.8,264.6,25.7,264.6,25.7
					L264.6,25.7z M287.4,15.4c5.3-1.4,5.4,2.6,5.4,2.6C291.6,15.7,287.4,15.4,287.4,15.4L287.4,15.4z M293.8,63.9
					c0,0-2.3,1.5-2.8,3.1C291,66.9,290.8,63.3,293.8,63.9L293.8,63.9z M268.8,4.3c2.6,0,5.3,3.7,5.3,3.7c10.2-2.4,13.6,3.6,13.6,3.6
					c5.4,0.1,7,2.4,7.4,3.3s-1.1,0.8-1.1,0.8c-1.8-2.8-7.2-2.4-7.2-2.4c-2.7-5.4-13.5-3.5-13.5-3.5c-2.6-4.3-6.1-4.1-6.1-4.4
					C266.6,3.5,268.8,4.3,268.8,4.3L268.8,4.3z M283,13c-2.3-1-4.9-1-7.2,0.1C275.8,13.1,279.8,9.1,283,13z M272.6,12.9
					c-1.1-2.6-4.7-3.2-4.5-3.3C272.5,8.5,272.6,12.8,272.6,12.9L272.6,12.9z M283.2,33.5c-4.4-6.1-11-10.2-18.4-11.4
					C277.6,19.9,283.2,33.4,283.2,33.5L283.2,33.5z M265.1,13.4c-2.3,2-3.2,3.5-5,4.9c-1.2,1-1.5,1.2-1.5,1.2
					c0.1-0.6,0.3-1.2,0.6-1.7c1.6-1.9,3.5-3.6,5.6-5c0.4-0.2,0.9-0.4,1.4-0.5C265.8,12.6,265.5,13,265.1,13.4z M254.9,18.3
					c0,0.9-1.2,1.3-1.2,1.3s-0.1-1.6-0.1-1.8c-0.1-3.3,4.3-7.4,5.7-8.1c0.6-0.3,1.2-0.5,1.9-0.4c0,0-1,1-1.1,1.2s-3,2.8-4.1,4.3
					C255.1,15.7,254.7,17,254.9,18.3L254.9,18.3z M256.3,16.8c0.8-1.6,5.2-5.9,6.3-6.5c0.5-0.3,1.1-0.6,1.7-0.8
					c-0.6,1-1.3,1.9-2.1,2.7c-1.3,1.2-3.5,3.2-4.3,4.1c-1.1,1.3-2.1,2.5-2.1,2.5C255.9,18,256,17.4,256.3,16.8z M252.6,13
					c1-1.7,2.1-3.3,3.5-4.7c2.1-2.2,5.3-3.2,8.3-2.4c0,0,0.7,0.2,1,0.3c-1.4,0-2.8,0.2-4.2,0.6c-3,0.7-3.1,1-8.6,7.6
					C252.3,14.6,251.8,14.4,252.6,13z M252.1,15.4c0.2,0.6-1.2,1.3-0.5,4.9c-1.2-1.2-1.4-3.1-0.5-4.6
					C251,15.7,251.8,14.9,252.1,15.4L252.1,15.4z M251.9,8.3c0,0,0.2,2.4-0.5,3.4s-2.4,1.9-2.9,3.3c-0.3,1.9-0.2,3.8,0.4,5.6
					c0.1,0.4,0.1,0.8,0.1,1.2c0,0-0.6,0-1.1-0.8c-1.2-1.6-1-5.1-0.7-6c0.5-1.3,1.3-2.4,2.3-3.4C250.7,10.7,250.8,10.6,251.9,8.3
					L251.9,8.3z M244.8,12.1c1.3-1.3,2.5-2.7,3.7-4.1c0.7-1,1.2-2.9,1.4-2.6c0.2,1,0.2,2-0.1,3c-0.3,1.5-2.1,2.9-3.4,4.2
					c-1.3,1.4-1.9,3.3-1.8,5.3c0.1,1.2,0.3,2.3,0.7,3.4c0.3,0.8,0.3,1.6,0,2.3c-1.9-2.5-2-4-2-5.5S243.6,13.5,244.8,12.1L244.8,12.1
					z M227.8,68.7c-0.7-0.7-1.1-1.7-1-2.7c0.2-1.1,1-0.3,1-0.3c0.3,0.6,0.6,1.1,1,1.6c0.5,0.6,2.2,0.6,4,0.8
					c1.1,0.1,2.1,0.8,2.5,1.9C231.8,69.7,228.4,69.3,227.8,68.7L227.8,68.7z M237.4,67.1c-4.5-3.8-6.1-4.7-9.1-5.1
					c0,0-0.9-1.8-0.4-2.2c1-0.4,2.2-0.2,3,0.6c0.9,0.7,2.1,1.1,3.3,1c1.2-0.1,2.1-1.1,2.2-2.3c0.4-2.4-1.1-4.6-3.4-5.3
					c0,0-1.6,0-1,0.9c0,0,1.8,0.8,2.2,1.6s0.8,3.3-0.1,3.7s-0.8-1.2-1.2-1.6s-1.7-1.2-4.9-0.9c-0.6,0-1.1,0.2-1.5,0.7
					c-0.5,0.7-1.6-0.6-1.9-1.5s-0.6-1.6,0.4-2.4s9-8.1,9.7-9.6c0.6-1.9,0.8-3.8,0.7-5.8c-0.1-1.6,3.3-3.6,4.4-5s3.6-4.8,4.8-6.1
					s2.2-3,4.9-4.4c0.5-0.3,0.5-0.4,0.3-0.4l0.2-0.1c4.3-2.6,4.6-1.5,4.6-1.5c0.9,1.1,6.7,5.7,6.7,5.7c0,0.3-0.9,0.3-1.7,0.6
					s-0.9,1.6,0.6,2s0.7,1.2,0.7,1.2c-1.5-0.1-4.5,1.4-2.5,2c3.7,1.2,1.7,2,1.7,2c-3.4,0.2-3.9,2.6-3.9,2.6c2.4,1.1,4.8,2,7.2,2.8
					c5.9,2.1,4,6.1,4,6.1c9.5,0,9.6,2.5,9.6,2.5l-10.2-1l-0.5,2.2c9.9,0.4,8.9,2,8.9,2l-9.5-0.7l-0.4,2.1l0.7,0
					c6.6-0.2,6.9,1.6,6.9,1.6l-7.8-0.6l-0.3,2.1c-0.3,1.5-0.7,2.9-1.4,4.2c-0.5,1-1.1,2-1.7,3c0.6-1.2,1-2.4,1.3-3.7
					c0.1-0.9,0-1.7-0.5-2.5l0,0c0,0-2.4,8-6.4,11.7c1-1.7,1.2-3.7,0.7-5.6c0,0-2.7,4.8-6,6C246.2,71.2,241.1,70.2,237.4,67.1
					L237.4,67.1z M296.8,136.6c0,0-4.3,3.4-12.7,6.4s-14.1,4.4-19.8,8.1s-12,7.7-13.5,13.3c0,0-1.6-0.1-3.1-5.8s-5-17.5-9.4-22.6
					c0,0-0.4-3.2,4.8-9.9s8-9.9,8-9.9s1.6,10.4,2.4,11.7c0.8,1.2,1.5,1.6,1.4-0.7c-0.4-4.5-1.1-8.9-2.1-13.3
					c-0.7-1.8-1.1-2.2-1.1-3.2s-0.9-14.3-5.6-19.7c1.2-0.2,2.4-0.3,3.6-0.4c2.6,0,11.3,0,12.1-0.2s4.7-0.7,7.6-6.4s2.9-7,3-8.2
					c0-0.4,0.1-1.9,0.1-3.8h0c9.1,2.4,16-8.5,16-8.5s-0.7,4.8-1,10.1s1.6,8.2,1.6,8.2c1.2,2.2,2.3,4,3.1,5.5
					c-0.1,3.2-0.4,8.4-0.2,12c0.3,5.7,5,13.3,5,13.3s6.6,10.4,9.8,13.2C306.9,126.1,304.7,131.1,296.8,136.6L296.8,136.6z"/>
			</g>
		</g>
	</g>
</g>
</svg>
