<svg xmlns="http://www.w3.org/2000/svg" xmlns:xlink="http://www.w3.org/1999/xlink" width="344.667" height="272.627" viewBox="0 0 344.667 272.627">
  <defs>
    <clipPath id="clip-path">
      <rect width="43" height="39.8" fill="none"/>
    </clipPath>
  </defs>
  <g id="Group_74" data-name="Group 74" transform="translate(-12.667 -1573.873)">
    <path id="Path_25" data-name="Path 25" d="M585.667,5007.808h165l9-14.142,9,14.142H927.333V5262H585.667Z" transform="translate(-571.5 -3417)" fill="none" stroke="#162b17" stroke-width="3"/>
    <g id="Quote" transform="translate(164 1609)" clip-path="url(#clip-path)">
      <path id="Path_19" data-name="Path 19" d="M15.856,22.589V39.8H0V26.085C0,18.824.806,13.446,2.688,9.95A22.244,22.244,0,0,1,13.706,0l3.762,5.916a14.119,14.119,0,0,0-6.719,5.647c-1.613,2.42-2.419,6.185-2.419,11.026Zm25.8,0V39.8H25.8V26.085c0-7.53.806-12.639,2.688-16.135A22.244,22.244,0,0,1,39.506,0L43,5.916a14.119,14.119,0,0,0-6.719,5.647c-1.344,2.42-2.15,6.185-2.419,11.026Z" fill="#bf2e27"/>
    </g>
  </g>
</svg>
