<svg xmlns="http://www.w3.org/2000/svg" xmlns:xlink="http://www.w3.org/1999/xlink" width="28" height="28" viewBox="0 0 28 28">
  <defs>
    <style>
      .cls-1 {
        fill: none;
      }

      .cls-2 {
        clip-path: url(#clip-path);
      }

      .cls-3 {
        fill: #fff;
        fill-rule: evenodd;
      }
    </style>
    <clipPath id="clip-path">
      <rect class="cls-1" width="28" height="28"/>
    </clipPath>
  </defs>
  <g id="Component_12_17" data-name="Component 12 – 17" class="cls-2">
    <rect id="Rectangle_393" data-name="Rectangle 393" class="cls-1" width="28" height="28"/>
    <path id="Path_2" data-name="Path 2" class="cls-3" d="M46.9,24.794c10.617,0,16.393-8.743,16.393-16.393V7.621A12.691,12.691,0,0,0,66.1,4.654a12.96,12.96,0,0,1-3.279.937,6.074,6.074,0,0,0,2.5-3.123,14.32,14.32,0,0,1-3.591,1.405A5.576,5.576,0,0,0,57.516,2a5.866,5.866,0,0,0-5.777,5.777A3.044,3.044,0,0,0,51.9,9.026,16.142,16.142,0,0,1,40.03,2.937,5.979,5.979,0,0,0,39.249,5.9a6.2,6.2,0,0,0,2.5,4.84,5.263,5.263,0,0,1-2.654-.781h0a5.706,5.706,0,0,0,4.684,5.621,4.813,4.813,0,0,1-1.561.156,2.657,2.657,0,0,1-1.093-.156,5.915,5.915,0,0,0,5.464,4.059,11.788,11.788,0,0,1-7.182,2.5A4.322,4.322,0,0,1,38,21.984a14.736,14.736,0,0,0,8.9,2.81" transform="translate(-38 1.512)"/>
  </g>
</svg>
